<?xml version="1.0" encoding="utf-8"?>
<!-- Generator: Adobe Illustrator 17.1.0, SVG Export Plug-In . SVG Version: 6.00 Build 0)  -->
<!DOCTYPE svg PUBLIC "-//W3C//DTD SVG 1.1//EN" "http://www.w3.org/Graphics/SVG/1.1/DTD/svg11.dtd">
<svg version="1.1" id="Layer_1" xmlns="http://www.w3.org/2000/svg" xmlns:xlink="http://www.w3.org/1999/xlink" x="0px" y="0px"
	 viewBox="0 0 600 1200" enable-background="new 0 0 600 1200" xml:space="preserve">
<path fill="#FFFFFF" d="M15.7,0.6c190.1,0,380.1,0,570.2,0c0,366.9,0,733.9,0,1100.8c-190.1,0-380.1,0-570.2,0
	C15.7,734.4,15.7,367.5,15.7,0.6z M188.4,288.6c0.3,0.1,0.5,0.1,0.8,0.2c1.2,3.7,2.5,7.4,3.5,11.2c1.4,5.4,2.4,10.9,3.6,16.4
	c1.7,7.5,3.5,14.9,5.2,22.4c1.6,6.9,3.4,13.8,4.8,20.8c1.6,8.1,3.3,16.2,4.2,24.4c1.1,10.5,0.2,21.1-1.1,31.6
	c-0.1,0.4-0.3,0.9-0.4,1.3c-1.3,4.8-2.8,9.5-3.7,14.3c-1.4,6.8-2.4,13.6-3.4,20.4c-1.2,8.3-2.4,16.5-3.3,24.8
	c-1,9.7-1.8,19.3-2.2,29c-0.4,9.2-0.4,18.4-0.3,27.6c0.2,10.4,0.5,20.7,1.1,31.1c0.5,8.2,1.4,16.3,2.1,24.5
	c0.4,4.3,0.9,8.6,1.4,12.9c0.3,2.4,0.8,4.7,1.2,7.1c1.4,6.8,2.7,13.7,4.2,20.5c0.9,4.2,2,8.4,3,12.6c1.2,5.1,2.5,10.1,3.7,15.2
	c0.9,3.8,1.7,7.7,2.5,11.6c1,4.8,2.1,9.7,3,14.5c0.6,2.8,0.9,5.6,1.5,8.4c1,5.3,2.1,10.5,3,15.8c0.6,3.5,0.9,7,1.5,10.4
	c0.9,6,2.5,12,2.8,18c0.3,7.7-0.2,15.5-0.7,23.3c-0.5,7.3-1.3,14.5-2.3,21.8c-0.6,4.9-1.8,9.8-2.6,14.7c-1,6.4-2.5,12.9-2.8,19.3
	c-0.5,11.3-0.3,22.7-0.2,34.1c0,3.8,0.3,7.7,1.4,11.2c2.3,7.7,5.3,15.1,8,22.7c3.6,10.3,7.6,20.4,10.5,30.9
	c2.9,10.2,5,20.7,6.6,31.3c1.4,9.1,1.7,18.3,2.3,27.5c0.1,2-0.7,4.1-0.8,6.2c-0.2,4.6-0.1,9.1-0.3,13.7c0,0.8-0.2,1.7-0.7,2.3
	c-5.4,8.6-12.4,15.7-20.7,21.4c-2.2,1.5-4.7,2.4-6.8,3.9c-2.5,1.8-4.6,4-7,5.8c-1.8,1.4-3.7,2.7-3.7,5.1c0,3.8-1.1,8.1,3.7,10.3
	c0.3,0.2,0.4,0.9,0.8,1.1c2.5,1.6,5.3,4.7,7.4,4.4c3.1-0.5,4.6,0.4,6.4,2.1c0.4,0.3,1,0.5,1.5,0.7c4.3,1.4,8.7-0.1,11.3-2.6
	c2.6-2.5,5.5-2.5,8.1-3.8c1.2-0.6,2.8-0.7,3.8-1.6c3.7-3,7.7-5.8,10.7-9.4c3.6-4.2,8.2-6.4,13.1-8.2c4.2-1.5,7.2-4.5,9.5-8.1
	c1-1.6,1.3-4,1.2-6.1c-0.2-3.4-1-6.8-1.6-10.1c-0.4-2.7-1.2-5.5-1.2-8.2c0-2.7,1.1-5.4,1-8.1c-0.2-6.2-0.6-12.4-1.4-18.5
	c-1-8.1-3.4-16.2-3.6-24.4c-0.4-15.1,0.1-30.3,0.9-45.4c0.5-10.1,2.4-20.2,2.9-30.3c0.5-10.9,0.6-21.8,0.1-32.6
	c-0.4-8.7-2.3-17.2-2.9-25.9c-0.5-8.4-0.7-16.9-0.2-25.3c0.4-6.4,2.1-12.7,2.9-19.1c0.7-5.7,0.9-11.4,1.2-17.2
	c0.4-7.7,0.8-15.4,1-23.1c0.3-17.1,1.3-34.1-1.6-51.1c-1.3-7.5-1.2-15.3-1.4-23c-0.4-12.3,0.7-24.4,2.5-36.6
	c0.5-3.7,1.5-7.2,2.2-10.9c0.3,0,0.6,0,0.8,0c0.7,3.4,1.7,6.8,2,10.2c0.8,9,1.4,18.1,2,27.1c0.2,2.2,0.2,4.5,0.1,6.7
	c-0.3,9-0.4,17.9-1.1,26.9c-0.7,9.3-2,18.6-2.8,27.8c-0.2,2.5,0.6,5.1,0.7,7.7c0.2,6.9,0,13.8,0.4,20.6c0.4,7.1,1.2,14.2,1.7,21.2
	c0.6,7,1,14.1,1.7,21.1c0.4,3.8,1.8,7.6,1.8,11.4c0,10.2-0.4,20.4-0.9,30.6c-0.3,5.4-1,10.7-1.5,16c-0.6,6.4-1.6,12.9-1.6,19.3
	c0,7.5,0.9,14.9,1.5,22.4c0.6,7.8,1.3,15.5,1.9,23.3c0.7,8.7,2,17.4,1.9,26c-0.1,11.2-1.4,22.3-2.1,33.5c-0.1,1.6-0.4,3.1-0.6,4.7
	c-0.9,6.2-2.1,12.4-2.6,18.7c-0.3,3.6,0.3,7.3,0.9,10.9c0.9,5.6-0.8,10.8-1.7,16.1c-0.7,4.4-1.6,8.8,0.3,13.1
	c2.6,6.1,8.3,8.2,13.9,10.4c1.8,0.7,3.8,1.6,5.2,2.9c3.5,3.1,6.7,6.5,10,9.7c3.3,3.2,7.3,5,11.8,5.5c0.9,0.1,2,0.6,2.6,1.3
	c3.3,4.2,10.2,5.8,14.7,3.1c2.1-1.3,3.8-3.4,6.6-1.4c0.1,0.1,0.5-0.1,0.8-0.2c4.1-1.8,6.5-5.5,9.9-8c0.4-0.3,0.6-1.2,0.5-1.8
	c-0.2-2.6-0.4-5.2-0.9-7.7c-0.2-1.1-1-2.3-1.9-2.9c-4.9-3.6-9.8-7-14.8-10.5c-7.8-5.4-14.7-11.7-19.9-19.6c-0.5-0.8-1.2-1.8-1.3-2.7
	c-0.4-6.9-0.9-13.9-1.1-20.9c-0.1-4.8,0.2-9.6,0.8-14.4c1.2-8.9,2.7-17.7,4.2-26.5c1-5.7,2.3-11.4,3.7-17c1.6-6.4,3-13,5.2-19.2
	c3.4-9.6,7.8-18.9,11-28.6c2.1-6.4,3.3-13.2,3.8-19.8c0.6-8.7,0.5-17.4,0.1-26.1c-0.4-7.9-1.3-15.7-2.4-23.5
	c-1.3-9.3-3.1-18.6-4.5-28c-0.8-5.4-1.7-10.9-1.8-16.3c-0.1-7.5,0.5-15,0.9-22.5c0.1-1.9,0.2-3.9,0.5-5.8c0.9-5.5,2-10.9,3-16.4
	c1.2-7.3,2.2-14.7,3.6-21.9c1.9-9.7,4.2-19.3,6.4-29c1.9-8.3,4.1-16.5,5.9-24.9c1.9-8.5,3.7-17,5.1-25.6c1.2-6.8,1.8-13.8,2.6-20.7
	c0.6-5.1,1.3-10.1,1.4-15.2c0-5.1,2.9-9.8,1.3-15.2c-0.7-2.2,0.5-4.9,0.5-7.4c-0.1-9.8-0.3-19.5-0.6-29.3
	c-0.4-13.2-0.9-26.3-1.6-39.5c-0.3-5.6-1-11.3-1.9-16.9c-1.4-8.8-3.1-17.5-4.7-26.2c-0.9-4.9-2.2-9.7-3-14.6
	c-1.2-6.8-2.9-13.7-3.2-20.5c-0.5-9.6-0.5-19.3,1.6-28.8c1.8-7.8,3.5-15.7,5.2-23.5c1.6-6.8,3.3-13.7,4.8-20.5
	c1.3-5.5,2.4-11,3.8-16.5c1.7-6.6,3.5-13.2,5.3-19.8c0.4-1.4,0.9-2.7,1.6-4.4c0.8,1.1,1.3,1.6,1.5,2.2c2,5.3,4,10.6,5.9,16
	c2.7,7.6,5.2,15.2,7.8,22.8c2.7,7.6,5.5,15.1,8.1,22.7c1.6,4.5,2.6,9.3,4.3,13.7c1.4,3.7,4,6.9,5.3,10.6c1.9,5.6,3.2,11.4,4.6,17.1
	c2.5,10.1,5.6,20,10.6,29.1c8.9,16.4,19.4,31.8,30.5,46.8c3.3,4.5,7.5,8.6,8,14.8c0.3,3.1,0.9,6.2,1.6,9.3c2.6,13,5.3,26,10.1,38.4
	c2.3,6.1,4.7,12.3,7.2,18.3c1.8,4.2,5.5,5.3,9.7,5.4c1,0,2.3,0.5,3.1,1.2c2.1,1.8,4.6,2.7,6.9,1.7c2.4-1.1,3.3-3.5,2.9-6.3
	c-0.4-2.6-0.5-5.3-0.8-7.9c0.2-0.1,0.5-0.2,0.7-0.3c0.5,0.7,1,1.3,1.5,2c3.8,5.5,6.5,11.9,12.8,15.3c3.9,2.1,7.8,1.4,8-2.8
	c0.1-2.4-0.4-5.1-1.3-7.3c-2.1-5.2-4.6-10.3-6.9-15.4c-0.2-0.5-0.1-1.1-0.2-1.6c1.8,1.4,3,2.9,4.1,4.6c2.4,3.8,4.6,8,9.2,9.5
	c1.8,0.6,4.5,0.4,5.9-0.7c1.2-1,2-3.9,1.4-5.4c-1.6-4.6-3.8-9-6.1-13.4c-2.8-5.5-5.9-10.8-8.8-16.3c-0.4-0.8-0.4-1.8-0.7-3.1
	c0.9,0.3,1.3,0.4,1.6,0.6c4,2.4,7.8,5.2,13,4.3c2.5-0.4,3.9-2,4.5-4c0.4-1.4,0-3.8-1-4.8c-3.2-3.2-7-5.8-10.4-8.8
	c-8-7-14.3-15.5-20.5-24.1c-2.8-3.8-5.9-6.8-10.7-7.9c-2.6-0.6-5.3-1-6.1-4.9c-3.5-15.4-7.7-30.6-11.1-46
	c-3.2-14.7-8.9-28.4-15.7-41.7c-3.8-7.3-8.5-14-13.1-20.9c-3.5-5.3-7-10.5-8.2-16.8c-3-15-4.6-30.3-8.9-45
	c-2.6-8.8-5.4-17.6-10.5-25.2c-4.9-7.4-6.7-15.8-8.4-24.2c-2.4-11.9-5.9-23.2-13.5-32.8c-5.4-7-12.4-11.9-21.4-13.1
	c-4.5-0.6-8.9-1.4-13-3.4c-5.7-2.8-11.5-5.4-17.4-7.9c-9.2-4-18.7-7.6-27.8-12c-7.2-3.5-12.2-9.3-14.3-17.3
	c-0.6-2.1-0.9-4.3-0.9-6.5c0-2.3,0.4-4.6,0.6-6.8c0.1-1.2,0-2.5,0.6-3.5c3.4-5.8,5.6-12,6.5-18.6c0.3-2.6,1.1-4.6,4.5-4.8
	c3.2-0.2,5.8-2.2,7.4-5.1c1.4-2.7,2.7-5.4,4.3-8c2.6-4.4,2.9-9.3,3.5-14.1c0.6-4.6-2.8-8.5-7.7-10.3c0-0.3-0.1-0.5-0.1-0.8
	c0.2-9.6,1.3-19.3-2-28.7c-2.3-6.4-5.5-12.2-10.6-16.6c-7.1-6.2-15.9-9-24.9-10.4c-11.3-1.8-22.7-1.1-33.9,2.3
	c-14.6,4.5-27.6,18.4-27.9,35.1c-0.1,5.6,0,11.3,0.1,16.9c0,1.4-0.2,2.3-1.8,2.8c-1.5,0.5-2.9,1.9-3.9,3.2c-1.5,2-2.2,4.2-1.4,7
	c0.8,2.6,0.3,5.6,1.2,8.1c1.7,4.5,3.8,8.9,6.1,13.1c1.4,2.7,3.5,5.1,6.8,5.5c4.6,0.6,4.8,0.8,5.2,5.5c0.4,5.9,2.2,11.5,5.4,16.5
	c1.8,2.8,2.7,5.5,2.1,8.8c-0.1,0.7,0.2,1.5,0,2.2c-0.5,3.3-0.6,6.7-1.7,9.7c-1.9,5.2-5.4,9.5-10.2,12.3c-6,3.5-12.5,6.4-18.9,9.3
	c-8.5,3.8-17.1,7.4-25.5,11.2c-5.2,2.4-10.3,5-16.2,5.3c-4.9,0.2-9.2,2.1-13.5,4.6c-9.3,5.6-13.3,14.9-17.6,24
	c-1.9,4-2.6,8.5-3.7,12.8c-1,3.9-2.4,7.7-2.9,11.7c-0.6,4.6-1.9,8.9-4.2,12.9c-5.1,8.7-9.4,17.7-12.3,27.3c-2.1,7-3.5,14.2-4.9,21.4
	c-1.6,7.7-2.7,15.5-4.4,23.2c-0.9,4.1-2,8.4-4.1,12.1c-4,7.1-9,13.6-13.1,20.5c-3.5,5.8-6.7,11.9-9.5,18c-2.4,5.2-4.2,10.7-5.9,16.2
	c-2.3,7.3-4.3,14.7-6.2,22.2c-1.8,6.9-3.1,13.9-4.9,20.9c-1.3,5.3-3.1,10.5-4.3,15.9c-0.9,4.1-2.9,6.5-7.1,7.2
	c-3.5,0.6-6.4,2.4-8.5,5.4c-1.9,2.6-3.7,5.2-5.7,7.7c-4.1,5.2-7.9,10.6-12.5,15.4c-3.9,4.1-8.5,7.6-13,11c-4,3.1-2.7,8.5,1.1,9.4
	c2.5,0.6,5.3,0.4,7.8-0.3c2.5-0.7,4.8-2.4,7.8-4c-0.3,1.2-0.3,2-0.6,2.6c-3,5.9-6.1,11.8-9.1,17.7c-1.9,3.7-3.9,7.3-5.5,11
	c-1.1,2.4-0.7,5,1.4,6.9c2,1.8,4.2,1.4,6.4,0.1c1-0.5,2.1-1,2.7-1.8c2-2.4,3.7-4.9,5.6-7.4c1.5-1.9,3.1-3.8,4.6-5.6
	c0.5,0.6,0.6,0.8,0.5,0.9c-2.9,7.2-6,14.3-8.8,21.5c-1.5,3.9,1.3,7.7,5.1,6.6c2.8-0.8,5.6-2.8,7.5-5c3.2-3.7,5.6-8,8.4-12.1
	c0.3-0.4,1-0.5,1.7-0.8c0,1,0.1,1.7,0,2.3c-0.2,2.5-0.8,4.9-0.7,7.4c0.1,4.7,3.6,6.4,7.8,4c0.6-0.4,1.1-0.9,1.8-1.3
	c0.9-0.4,1.9-1,2.9-1c3.6,0,6.6-0.8,8.9-4.2c5.3-8.1,7.7-17.3,10.8-26.2c1.8-5.1,2.5-10.5,3.7-15.8c1.7-7.4,3.9-14.8,5.1-22.3
	c0.9-5.6,3-10.1,6.3-14.7c7.9-11,15.4-22.3,22.7-33.8c6.3-10,12.9-19.9,16.5-31.4c2.4-7.8,4.6-15.7,6-23.7c0.8-4.6,2.5-8.6,5-12.5
	c1.5-2.5,3.1-5,4.1-7.7c1.5-4.4,2.2-9,3.7-13.4c3.1-9.3,6.5-18.5,9.8-27.8c3.4-9.6,6.8-19.1,10.3-28.7
	C186.9,291.6,187.7,290.1,188.4,288.6z M437.1,224.6c5,0,9.9,0,14.8,0c19.2-0.1,38.3-0.2,57.5-0.1c7.2,0,14.3,0.4,21.5,0.5
	c4.7,0,9.3-0.5,14-0.4c2.6,0.1,3.5-0.9,3.2-3.2c-0.7-4.3-1.3-8.6-2.3-12.8c-1.8-7.6-4.1-14.9-8-21.7c-4-6.9-9.2-12.6-15-17.9
	c-5.2-4.7-10.1-9.4-10.6-17.1c-0.3-4.4-2-8.8-1.6-13.1c0.5-5.9,2-11.9,7.7-15.5c1.2-0.8,2.4-1.4,3.4-2.4c2.4-2.1,5-4.1,7-6.6
	c2.8-3.5,4.3-7.7,5.6-12.1c2.9-9.9,2.5-19.7,1-29.5c-1.4-9.4-5.1-18.1-9.9-26.3c-3.5-6.1-8.5-11.1-14.2-14.9c-7.4-5-15.7-8-24.6-9.7
	c-7.9-1.5-15.7-2.5-23.7-1.7c-1.6,0.1-3.2-0.1-4.7,0.4c-6,1.9-11.9,3.9-17.9,6c-5.5,1.9-10.7,4.3-15.5,7.7c-5.4,3.8-6.2,6.1-4,12.5
	c0.2,0.7,0.3,1.5,0.1,2.2c-0.9,2.8-2,5.5-3,8.3c-2.6,7.4-2.6,14.7,0,22.2c1.2,3.3,2.4,7.4,1.5,10.4c-2.2,7.4-5.5,14.5-10,21
	c-2.2,3.1-1.8,5.6,1,7.9c2.6,2.2,6.5,3.7,4.2,8.4c-0.2,0.3,0.2,0.9,0.3,1.3c0.5,2.4,0.8,4.8,1.4,7.1c0.1,0.6,0.6,1.5,1.1,1.7
	c2.7,1.1,2,3.1,1.8,5.3c-0.3,3.4-1,7.3,0.2,10.3c2.8,6.4,8.3,7.6,14.8,6.4c3.7-0.7,7.3-1.8,11-2.7c1.6-0.4,2.9-0.2,2.8,1.8
	c-0.3,5.5,2.5,9.9,4.5,14.7c1.5,3.5,2.3,7.1,0.4,10.7c-0.7,1.5-1.2,3.1-1.9,4.6c-1.6,3.7-2.7,7.8-4.9,11.1
	C441.2,206.9,437.6,214.8,437.1,224.6z M75.6,701.4c0.5,0.1,1,0.2,1.6,0.2c0.1,2,0.1,4.1,0.3,6.1c0.4,2.6,0.5,5.3,1.7,7.5
	c0.7,1.3,3.2,2.1,5,2.2c1.8,0.1,3.5-0.8,3.9-3.1c0.5-3.1,1.3-6.2,1.9-9.4c0.5-3.1,0.4-6.4,1.5-9.3c2.9-7.5,6.2-14.9,9.5-22.2
	c1.8-4.1,2.5-8.5,1.1-12.4c-1.3-3.6-0.4-5.6,2.1-7.8c6.2-5.8,12.2-11.7,18.2-17.7c0.5-0.5,0.9-1.2,1.4-1.9c-0.1-0.2-0.3-0.4-0.4-0.6
	c-0.7,0.4-1.4,0.6-2,1.1c-7,6.6-13.9,13.2-20.8,19.9c-1.6,1.5-1.7,3.4-0.9,5.6c0.8,2.5,2,5.4,1.4,7.7c-1.5,5.3-3.9,10.4-6,15.5
	c-1.6,3.9-3.8,7.6-4.8,11.6c-1.5,6.1-2.3,12.4-3.4,18.7c-0.4,2.5-2.9,3.8-4.8,2c-1.3-1.2-2.8-3.1-2.8-4.7
	c-0.1-6.2,0.5-12.3,0.8-18.5c0.1-1.3,0-2.6,0-3.8c-0.4,0-0.8-0.1-1.1-0.1c-0.3,1.9-0.6,3.7-1,5.6c-0.4,1.6-0.5,3.5-1.5,4.6
	c-6.3,7-10.2,15.6-15.3,23.5c-1.4,2.1-2.8,4.3-4.4,6.3c-1.9,2.3-5.3,2.2-5.5,0c-0.2-2.4-0.2-5.1,0.7-7.3c2.3-5.6,5-10.9,7.7-16.3
	c4.7-9.6,9.6-19.1,14.2-28.8c4.8-10,9.2-20.2,14-30.2c3.5-7.2,7.1-14.4,11.1-21.3c3.6-6.2,7.8-12,11.7-18c0.4-0.7,0.5-1.6,0.7-2.3
	c-1.2,0.5-2,1.1-2.5,1.8c-5.1,8-10.7,15.7-15.2,24c-3.6,6.6-9.3,9-15.9,10.3c-2.9,0.6-3.7-1-2.5-3.7c0.3-0.7,0.3-1.5,0.6-2.1
	c5.8-11.7,11.6-23.5,17.3-35.2c0.4-0.8,0.3-1.7,0.4-2.6c-1.2,0.4-1.9,0.9-2.2,1.6c-4.2,8.5-8.1,17.1-12.5,25.4
	c-3.4,6.5-5.3,13.4-11.7,18.6c-10.6,8.5-20.2,18.4-29.7,28.2c-5.2,5.3-9.3,11.7-13.8,17.7c-2.5,3.3-1.7,6.7,0.2,10
	c0.5,0.9,0.2,2.3,0.4,3.4c0.4,2,0.7,4.2,1.7,5.8c0.4,0.7,2.8,0.5,4.2,0.1c1.5-0.4,2.8-1.3,4.1-2.1c1.7-1.1,3.4-2.3,5.1-3.4
	c0.2,0.2,0.4,0.3,0.6,0.5c-0.9,1.8-1.9,3.6-2.8,5.4c-2.5,4.8-5.3,9.4-5.3,15.2c0,2.2,0.4,4.5,2.6,4.9c1.7,0.3,4.3-0.5,5.4-1.7
	c4.7-5.2,8.9-10.8,13.3-16.3c0.6-0.7,1.2-1.4,1.7-2.1c0.3,0.2,0.5,0.3,0.8,0.5c-1,2.1-2.1,4.1-3,6.2c-1.7,3.8-4.1,7.4-3.9,11.8
	c0.1,2.3,0.6,4.8,2.7,5.2c1.9,0.3,5-0.4,6.2-1.8c3.4-4.1,6.1-8.8,9-13.4C69.6,711.2,72.6,706.3,75.6,701.4z M476.1,593.1
	c-0.4,0.1-0.8,0.2-1.2,0.3c0.2,0.8,0.2,1.6,0.5,2.3c0.6,1.3,1.5,2.6,2.1,3.9c4.9,10.3,9.8,20.5,14.6,30.8c0.9,1.9,1.8,3.8,2.6,5.6
	c-2.4,1.5-4.5,2.1-6.9,0.9c-2.1-1.1-4.6-1.4-6.7-2.5c-1.6-0.8-3.2-2.1-4.2-3.5c-1.5-2.1-2.4-4.6-3.7-6.7
	c-4.9-7.8-9.9-15.5-14.9-23.2c-0.3,0.1-0.7,0.2-1,0.3c0,0.7-0.2,1.5,0,2.1c0.6,1.2,1.6,2.3,2.3,3.4c6.1,10,12.8,19.6,18.1,30
	c6.6,13,11.9,26.7,18.2,39.9c6.4,13.5,13.3,26.7,19.8,40.1c1.2,2.5,1.8,5.5,1.6,8.2c-0.2,2.9-2.6,3.5-4.7,1.5
	c-1.5-1.4-2.7-3-3.8-4.7c-4.8-7.4-9.3-15.1-14.5-22.3c-2.2-3-3.8-5.7-3.9-9.4c-0.1-1.5-0.6-2.9-0.9-4.4c-0.9,0.5-1.3,1-1.3,1.5
	c0.2,2.5,0.9,5,0.9,7.4c0.1,4.7,0,9.4-0.3,14.1c-0.1,1.3-0.9,2.7-1.7,3.8c-1.7,2.2-4.5,1.8-5.3-0.9c-0.8-2.6-1.2-5.4-1.7-8.1
	c-0.7-3.9-0.9-8-2.2-11.7c-2.5-7-5.7-13.8-8.6-20.7c-1.7-4.2-2.7-8.4-0.9-12.9c0.8-2.1,1.3-4.3-0.8-6.4
	c-6.8-6.6-13.4-13.4-20.1-20.1c-0.6-0.6-1.3-1-1.9-1.5c-0.3,0.2-0.5,0.5-0.8,0.7c0.7,1,1.3,2.1,2.2,3c6.2,6.2,12.4,12.4,18.7,18.6
	c1.4,1.3,1.7,2.5,1.2,4.4c-0.9,3.3-2,6.6-0.6,10.1c1.5,3.8,2.5,7.8,4.2,11.4c4.5,9.4,8.2,18.9,8.6,29.4c0.1,1.8,0.7,3.7,1.3,5.4
	c0.8,2.2,2.7,2.9,4.9,2.4c3.6-0.9,5.7-3.8,5.8-8.1c0.1-2.6,0-5.1,0-7.7c0.3-0.1,0.6-0.3,0.9-0.4c0.7,0.8,1.4,1.6,2,2.5
	c4.3,6.7,8.4,13.5,12.8,20.1c1.6,2.4,3.3,4.8,5.4,6.6c3.1,2.5,6.8,0.8,7.1-3.1c0.3-3.6-0.1-7-2-10.2c-1.4-2.4-2.4-5.1-3.6-7.7
	c0.2-0.1,0.5-0.3,0.7-0.4c0.7,0.8,1.5,1.6,2.2,2.4c4,4.8,7.9,9.7,12.1,14.4c2.4,2.8,5.8,2.6,7.3-0.4c0.7-1.3,0.8-3.4,0.3-4.8
	c-2-5.4-4.3-10.6-6.5-15.9c-0.4-1-1-2-1.5-3c1.3,0.1,2,0.6,2.7,1.1c1.9,1.2,3.8,2.9,5.9,3.6c1.8,0.6,4.3,0.6,5.7-0.2
	c1-0.6,0.9-3.2,1.2-5c0.3-1.5,0.2-3.1,0.8-4.4c1.4-2.8,1.6-5.2,0.3-8.2c-2.8-6.2-7.1-11.3-11.4-16.4c-10.2-12-22.6-21.7-33.9-32.6
	c-1.5-1.4-3.1-2.8-3.9-4.6c-4.7-9.5-9.2-19.2-13.8-28.8C480.2,600.7,478.1,596.9,476.1,593.1z"/>
<path d="M188.4,288.6c-0.7,1.5-1.5,3-2.1,4.6c-3.5,9.5-6.9,19.1-10.3,28.7c-3.3,9.2-6.7,18.5-9.8,27.8c-1.5,4.4-2.2,9-3.7,13.4
	c-0.9,2.7-2.5,5.2-4.1,7.7c-2.4,3.9-4.2,7.9-5,12.5c-1.3,8-3.6,15.9-6,23.7c-3.6,11.6-10.1,21.4-16.5,31.4
	c-7.3,11.5-14.8,22.7-22.7,33.8c-3.3,4.6-5.4,9.1-6.3,14.7c-1.2,7.5-3.4,14.8-5.1,22.3c-1.2,5.3-1.9,10.7-3.7,15.8
	c-3.1,8.9-5.5,18.2-10.8,26.2c-2.2,3.4-5.2,4.1-8.9,4.2c-1,0-2,0.6-2.9,1c-0.6,0.3-1.1,0.9-1.8,1.3c-4.1,2.4-7.6,0.7-7.8-4
	c-0.1-2.5,0.5-4.9,0.7-7.4c0.1-0.6,0-1.3,0-2.3c-0.7,0.3-1.5,0.4-1.7,0.8c-2.8,4-5.2,8.3-8.4,12.1c-1.9,2.2-4.7,4.2-7.5,5
	c-3.9,1.1-6.7-2.7-5.1-6.6C42,548,45,540.8,48,533.7c0.1-0.1,0-0.3-0.5-0.9c-1.5,1.9-3.1,3.7-4.6,5.6c-1.9,2.4-3.6,5-5.6,7.4
	c-0.7,0.8-1.8,1.3-2.7,1.8c-2.1,1.2-4.4,1.7-6.4-0.1c-2.1-1.9-2.5-4.4-1.4-6.9c1.6-3.8,3.6-7.4,5.5-11c3-5.9,6.1-11.8,9.1-17.7
	c0.3-0.6,0.4-1.4,0.6-2.6c-3,1.6-5.2,3.3-7.8,4c-2.5,0.7-5.4,0.9-7.8,0.3c-3.7-0.9-5.1-6.3-1.1-9.4c4.5-3.5,9.1-6.9,13-11
	c4.5-4.8,8.4-10.2,12.5-15.4c2-2.5,3.8-5.1,5.7-7.7c2.1-2.9,5-4.8,8.5-5.4c4.2-0.7,6.2-3,7.1-7.2c1.1-5.4,3-10.6,4.3-15.9
	c1.7-6.9,3.1-13.9,4.9-20.9c1.9-7.4,4-14.8,6.2-22.2c1.7-5.5,3.5-11,5.9-16.2c2.8-6.2,6-12.2,9.5-18c4.2-7,9.1-13.5,13.1-20.5
	c2.1-3.6,3.2-7.9,4.1-12.1c1.7-7.7,2.8-15.5,4.4-23.2c1.5-7.2,2.8-14.4,4.9-21.4c2.8-9.6,7.2-18.6,12.3-27.3
	c2.3-3.9,3.6-8.2,4.2-12.9c0.5-3.9,1.9-7.8,2.9-11.7c1.2-4.3,1.9-8.8,3.7-12.8c4.3-9.1,8.4-18.4,17.6-24c4.2-2.6,8.6-4.4,13.5-4.6
	c5.9-0.3,11-2.9,16.2-5.3c8.5-3.8,17.1-7.3,25.5-11.2c6.4-2.9,12.8-5.8,18.9-9.3c4.7-2.7,8.3-7.1,10.2-12.3c1.1-3,1.2-6.5,1.7-9.7
	c0.1-0.7-0.2-1.5,0-2.2c0.6-3.3-0.3-6-2.1-8.8c-3.3-5-5-10.5-5.4-16.5c-0.4-4.7-0.5-4.8-5.2-5.5c-3.3-0.5-5.4-2.9-6.8-5.5
	c-2.3-4.2-4.4-8.6-6.1-13.1c-0.9-2.5-0.4-5.5-1.2-8.1c-0.8-2.8-0.2-5,1.4-7c1-1.3,2.4-2.6,3.9-3.2c1.7-0.6,1.9-1.4,1.8-2.8
	c-0.1-5.6-0.2-11.3-0.1-16.9c0.3-16.7,13.3-30.6,27.9-35.1c11.2-3.5,22.6-4.1,33.9-2.3c9,1.4,17.8,4.2,24.9,10.4
	c5.1,4.4,8.3,10.2,10.6,16.6c3.4,9.4,2.2,19,2,28.7c0,0.3,0,0.5,0.1,0.8c4.8,1.8,8.2,5.7,7.7,10.3c-0.6,4.8-0.9,9.7-3.5,14.1
	c-1.5,2.6-2.8,5.4-4.3,8c-1.6,3-4.2,5-7.4,5.1c-3.4,0.2-4.2,2.2-4.5,4.8c-0.9,6.7-3.1,12.8-6.5,18.6c-0.6,1-0.4,2.3-0.6,3.5
	c-0.3,2.3-0.7,4.6-0.6,6.8c0,2.2,0.3,4.4,0.9,6.5c2.1,7.9,7.1,13.8,14.3,17.3c9.1,4.3,18.5,7.9,27.8,12c5.8,2.5,11.7,5.1,17.4,7.9
	c4.2,2,8.5,2.8,13,3.4c9,1.2,15.9,6.2,21.4,13.1c7.5,9.6,11.1,20.9,13.5,32.8c1.7,8.3,3.5,16.8,8.4,24.2c5.1,7.7,7.9,16.4,10.5,25.2
	c4.4,14.7,6,30,8.9,45c1.2,6.3,4.7,11.6,8.2,16.8c4.6,6.8,9.3,13.6,13.1,20.9c6.9,13.2,12.5,27,15.7,41.7c3.4,15.4,7.6,30.6,11.1,46
	c0.9,3.8,3.6,4.2,6.1,4.9c4.8,1.1,8,4.1,10.7,7.9c6.2,8.6,12.4,17.1,20.5,24.1c3.4,3,7.2,5.6,10.4,8.8c1,1,1.4,3.3,1,4.8
	c-0.5,1.9-2,3.5-4.5,4c-5.2,0.9-9-1.8-13-4.3c-0.3-0.2-0.7-0.2-1.6-0.6c0.3,1.3,0.3,2.3,0.7,3.1c2.9,5.4,6,10.8,8.8,16.3
	c2.2,4.4,4.4,8.8,6.1,13.4c0.5,1.5-0.2,4.5-1.4,5.4c-1.3,1.1-4.1,1.2-5.9,0.7c-4.6-1.5-6.8-5.7-9.2-9.5c-1.1-1.7-2.3-3.2-4.1-4.6
	c0.1,0.5,0,1.1,0.2,1.6c2.3,5.1,4.8,10.2,6.9,15.4c0.9,2.3,1.4,4.9,1.3,7.3c-0.2,4.2-4.1,4.9-8,2.8c-6.2-3.4-9-9.8-12.8-15.3
	c-0.5-0.7-1-1.3-1.5-2c-0.2,0.1-0.5,0.2-0.7,0.3c0.3,2.6,0.4,5.3,0.8,7.9c0.4,2.8-0.5,5.3-2.9,6.3c-2.4,1-4.8,0.2-6.9-1.7
	c-0.8-0.7-2-1.2-3.1-1.2c-4.3-0.1-8-1.2-9.7-5.4c-2.5-6-4.9-12.2-7.2-18.3c-4.8-12.4-7.5-25.4-10.1-38.4c-0.6-3.1-1.3-6.2-1.6-9.3
	c-0.5-6.2-4.7-10.3-8-14.8c-11-15-21.6-30.4-30.5-46.8c-4.9-9.1-8.1-19-10.6-29.1c-1.4-5.7-2.7-11.6-4.6-17.1
	c-1.3-3.7-3.8-7-5.3-10.6c-1.7-4.5-2.8-9.2-4.3-13.7c-2.6-7.6-5.4-15.1-8.1-22.7c-2.7-7.6-5.2-15.2-7.8-22.8
	c-1.9-5.4-3.9-10.7-5.9-16c-0.2-0.6-0.7-1.1-1.5-2.2c-0.6,1.8-1.2,3.1-1.6,4.4c-1.8,6.6-3.6,13.2-5.3,19.8c-1.4,5.5-2.5,11-3.8,16.5
	c-1.6,6.8-3.3,13.7-4.8,20.5c-1.8,7.8-3.5,15.7-5.2,23.5c-2.1,9.5-2.1,19.2-1.6,28.8c0.3,6.9,2,13.7,3.2,20.5
	c0.9,4.9,2.1,9.7,3,14.6c1.6,8.7,3.3,17.4,4.7,26.2c0.9,5.6,1.6,11.2,1.9,16.9c0.7,13.1,1.2,26.3,1.6,39.5
	c0.3,9.8,0.5,19.5,0.6,29.3c0,2.5-1.1,5.2-0.5,7.4c1.6,5.4-1.2,10.1-1.3,15.2c0,5.1-0.8,10.2-1.4,15.2c-0.8,6.9-1.4,13.8-2.6,20.7
	c-1.5,8.6-3.3,17.1-5.1,25.6c-1.8,8.3-4,16.6-5.9,24.9c-2.2,9.6-4.4,19.3-6.4,29c-1.4,7.3-2.4,14.6-3.6,21.9c-0.9,5.5-2,10.9-3,16.4
	c-0.3,1.9-0.4,3.9-0.5,5.8c-0.3,7.5-1,15-0.9,22.5c0.1,5.4,1,10.9,1.8,16.3c1.4,9.3,3.2,18.6,4.5,28c1.1,7.8,2,15.6,2.4,23.5
	c0.4,8.7,0.6,17.5-0.1,26.1c-0.5,6.7-1.8,13.5-3.8,19.8c-3.2,9.7-7.6,19-11,28.6c-2.2,6.2-3.6,12.8-5.2,19.2
	c-1.4,5.6-2.7,11.3-3.7,17c-1.6,8.8-3,17.7-4.2,26.5c-0.6,4.7-0.9,9.6-0.8,14.4c0.1,7,0.6,13.9,1.1,20.9c0.1,0.9,0.7,1.9,1.3,2.7
	c5.2,8,12.2,14.2,19.9,19.6c5,3.5,9.9,6.9,14.8,10.5c0.9,0.7,1.7,1.8,1.9,2.9c0.5,2.5,0.7,5.1,0.9,7.7c0,0.6-0.1,1.5-0.5,1.8
	c-3.4,2.5-5.9,6.3-9.9,8c-0.3,0.1-0.6,0.3-0.8,0.2c-2.7-2-4.5,0.1-6.6,1.4c-4.5,2.7-11.3,1.1-14.7-3.1c-0.6-0.7-1.7-1.2-2.6-1.3
	c-4.6-0.5-8.5-2.3-11.8-5.5c-3.3-3.2-6.5-6.7-10-9.7c-1.5-1.3-3.4-2.1-5.2-2.9c-5.6-2.2-11.3-4.3-13.9-10.4c-1.8-4.3-1-8.7-0.3-13.1
	c0.9-5.3,2.5-10.6,1.7-16.1c-0.6-3.6-1.2-7.3-0.9-10.9c0.5-6.3,1.7-12.5,2.6-18.7c0.2-1.6,0.5-3.1,0.6-4.7c0.8-11.2,2-22.3,2.1-33.5
	c0.1-8.7-1.2-17.3-1.9-26c-0.6-7.8-1.3-15.5-1.9-23.3c-0.6-7.5-1.5-14.9-1.5-22.4c0-6.4,1-12.9,1.6-19.3c0.5-5.4,1.3-10.7,1.5-16
	c0.5-10.2,0.9-20.4,0.9-30.6c0-3.8-1.4-7.6-1.8-11.4c-0.7-7-1.1-14.1-1.7-21.1c-0.6-7.1-1.4-14.1-1.7-21.2
	c-0.3-6.9-0.2-13.8-0.4-20.6c-0.1-2.6-0.9-5.2-0.7-7.7c0.8-9.3,2.1-18.5,2.8-27.8c0.7-8.9,0.8-17.9,1.1-26.9c0.1-2.2,0-4.5-0.1-6.7
	c-0.6-9-1.2-18.1-2-27.1c-0.3-3.4-1.3-6.8-2-10.2c-0.3,0-0.6,0-0.8,0c-0.8,3.6-1.7,7.2-2.2,10.9c-1.8,12.1-2.8,24.3-2.5,36.6
	c0.2,7.7,0.2,15.5,1.4,23c2.9,17,1.9,34.1,1.6,51.1c-0.1,7.7-0.6,15.4-1,23.1c-0.3,5.7-0.5,11.5-1.2,17.2
	c-0.8,6.4-2.5,12.7-2.9,19.1c-0.5,8.4-0.4,16.9,0.2,25.3c0.6,8.7,2.5,17.2,2.9,25.9c0.5,10.9,0.4,21.8-0.1,32.6
	c-0.5,10.1-2.4,20.2-2.9,30.3c-0.7,15.1-1.2,30.3-0.9,45.4c0.2,8.1,2.6,16.2,3.6,24.4c0.8,6.1,1.2,12.3,1.4,18.5
	c0.1,2.7-1.1,5.4-1,8.1c0,2.7,0.8,5.5,1.2,8.2c0.5,3.4,1.4,6.7,1.6,10.1c0.1,2-0.2,4.4-1.2,6.1c-2.3,3.6-5.3,6.6-9.5,8.1
	c-4.9,1.8-9.5,3.9-13.1,8.2c-3,3.6-7,6.4-10.7,9.4c-1,0.8-2.6,1-3.8,1.6c-2.7,1.3-5.6,1.4-8.1,3.8c-2.7,2.6-7,4.1-11.3,2.6
	c-0.5-0.2-1.1-0.3-1.5-0.7c-1.9-1.6-3.4-2.6-6.4-2.1c-2.2,0.4-4.9-2.7-7.4-4.4c-0.3-0.2-0.4-0.9-0.8-1.1c-4.7-2.2-3.7-6.5-3.7-10.3
	c0-2.4,1.9-3.7,3.7-5.1c2.4-1.8,4.5-4.1,7-5.8c2.1-1.5,4.7-2.4,6.8-3.9c8.3-5.7,15.3-12.8,20.7-21.4c0.4-0.7,0.6-1.5,0.7-2.3
	c0.1-4.6,0.1-9.1,0.3-13.7c0.1-2.1,0.9-4.2,0.8-6.2c-0.6-9.2-0.9-18.4-2.3-27.5c-1.6-10.5-3.8-21-6.6-31.3
	c-2.9-10.5-6.9-20.6-10.5-30.9c-2.6-7.6-5.6-15.1-8-22.7c-1.1-3.6-1.4-7.5-1.4-11.2c-0.1-11.4-0.3-22.7,0.2-34.1
	c0.3-6.5,1.8-12.9,2.8-19.3c0.8-4.9,1.9-9.8,2.6-14.7c0.9-7.2,1.8-14.5,2.3-21.8c0.5-7.7,1.1-15.5,0.7-23.3c-0.2-6-1.8-12-2.8-18
	c-0.5-3.5-0.9-7-1.5-10.4c-0.9-5.3-2-10.5-3-15.8c-0.5-2.8-0.9-5.6-1.5-8.4c-1-4.8-2-9.7-3-14.5c-0.8-3.9-1.6-7.7-2.5-11.6
	c-1.2-5.1-2.5-10.2-3.7-15.2c-1-4.2-2.1-8.4-3-12.6c-1.5-6.8-2.8-13.7-4.2-20.5c-0.5-2.4-0.9-4.7-1.2-7.1c-0.5-4.3-1-8.6-1.4-12.9
	c-0.8-8.2-1.7-16.3-2.1-24.5c-0.6-10.4-0.9-20.7-1.1-31.1c-0.1-9.2-0.1-18.4,0.3-27.6c0.4-9.7,1.2-19.4,2.2-29
	c0.8-8.3,2-16.6,3.3-24.8c1-6.8,2.1-13.7,3.4-20.4c1-4.8,2.5-9.5,3.7-14.3c0.1-0.4,0.3-0.9,0.4-1.3c1.3-10.5,2.3-21.1,1.1-31.6
	c-0.9-8.2-2.6-16.3-4.2-24.4c-1.4-7-3.2-13.9-4.8-20.8c-1.7-7.5-3.5-14.9-5.2-22.4c-1.2-5.4-2.2-10.9-3.6-16.4
	c-0.9-3.8-2.3-7.5-3.5-11.2C188.9,288.7,188.7,288.6,188.4,288.6z M243.7,79.9c-2.4,2.3-3.1,1.5-4.1,0.4c-2.8-3.2-6-2.7-7.5,1.1
	c-0.8,1.9-1.2,4.2-1,6.1c0.9,6.4,3.5,12.2,6.9,17.8c2.3,3.7,4.9,6.5,9.7,5.9c1.4-0.1,2,0.5,2.3,2.1c0.9,5,1.7,10,3.3,14.8
	c3.1,9.7,10,15.9,19.5,19.1c7,2.3,14.1,2.9,21.4,1.5c10-1.9,17.9-7,22.4-16c2.9-5.7,4.1-12.3,5.7-18.6c0.5-2.2,1.3-2.9,3.4-3
	c3.5-0.1,6.2-1.5,8-4.7c0.6-1.1,1.3-2.2,1.9-3.3c3.5-6.2,6.6-12.5,4.8-19.9c-0.4-1.8-2-3.9-3.6-4.8c-1.9-1.1-3.5,0.8-4.8,2.3
	c-0.3,0.4-0.8,0.7-1.2,1.1c-1.9-1.5-0.4-2.3,0.2-3.5c1-2.2,2.3-4.5,2.5-6.8c0.4-4.6,0.2-9.3,0.1-13.9c-0.1-7.7-2.7-14.7-7.2-20.8
	c-8.6-11.8-21.6-15.1-35.1-16.4c-8.9-0.9-17.7,0.3-26.4,3.2c-14.3,4.8-22.9,14.6-26,29.2c-1.6,7.5-1,15.1-0.1,22.7
	c0.1,0.6,0.5,1.2,0.9,1.6C240.8,77.9,242.2,78.8,243.7,79.9z M289.2,599.1c1.2-0.7,2.1-1.1,2.9-1.6c5-3,10.4-5.5,15-9.1
	c11.5-9,18-21.8,24-34.6c2.8-6,4.5-12.6,6.6-19c1.6-4.8,3.3-9.6,4.5-14.5c1.8-7.8,3.5-15.7,6.9-23c3.8-8.1,8.7-15,18.2-17.2
	c2.2-0.5,4.4-1.5,4-4.6c-0.5-3.9-0.7-7.9-1.3-11.8c-0.9-5.8-2-11.7-3.1-17.5c-0.3-1.6-0.8-3.2-1.4-5.4
	c-10.7,37.3-32.4,61.6-72.3,65.2c-20.7,1.9-40.3-2.4-56.5-15.9c-15.8-13.1-26.5-29.7-30.3-50.4c-1.4,6.6-2.5,13.3-3.5,19.9
	c-0.8,5.4-1.5,10.8-2,16.2c-0.1,1,0.2,2.5,0.9,3.1c1,0.8,2.6,0.7,3.8,1.4c3.2,1.6,6.8,2.9,9.3,5.2c6.2,5.9,8.6,14,11.4,21.8
	c1.7,4.8,2.9,9.8,4.4,14.6c1.1,3.8,2.3,7.5,3.4,11.3c1.4,4.7,2.6,9.5,4.1,14.3c2.4,7.5,6.4,14.2,10.3,21.1
	c7,12.2,16.5,21.5,29.2,27.6c1.8,0.9,3.6,1.8,5.8,3c0.4-2.2,0.9-3.8,1-5.4c0.2-9.6,0.5-19.2,0.3-28.7c-0.1-3.4,0.3-6.8-1.9-10.1
	c-3.9-5.6-7.5-11.5-10.5-17.6c-3.1-6.2-5.4-12.8-8-19.3c-0.5-1.3-0.8-2.6-1.2-3.9c0.3-0.2,0.6-0.3,0.9-0.5c0.5,0.6,1.2,1,1.5,1.7
	c1.3,3.2,2.5,6.5,3.7,9.7c3.2,9,8.2,17.1,13.2,25.2c1,1.7,2.3,3.2,3.6,5c1-1.4,1.8-2.5,2.5-3.6c4.3-6.7,9.2-13,11.9-20.7
	c1.8-5.2,4.1-10.2,6.3-15.2c0.3-0.8,1.1-1.4,1.6-2.1c0.3,0.1,0.5,0.3,0.8,0.4c-0.1,0.9-0.1,1.9-0.4,2.8c-0.9,2.4-2.1,4.6-2.9,7
	c-3.4,9.7-7.4,19.1-14.1,26.9c-5.7,6.7-5,14.3-4.7,22c0.2,5.8,0.7,11.6,0.6,17.5C287.4,593.3,287.8,596.1,289.2,599.1z M169.2,202.5
	c1.7,1.4,3.2,2.7,4.8,4c5.9,4.7,11.7,9.7,17.9,14.1c5.3,3.7,11.2,6.5,16.7,10.1c11.4,7.6,24,11,37.4,11c28.7,0.1,57.5-0.3,86.2-0.5
	c7.6-0.1,15-1.8,21.6-5.4c10.4-5.7,20.6-11.8,30.6-18.4c5.8-3.8,10.9-8.7,16.3-13.2c2.2-1.9,2.2-2.6-0.5-4c-3-1.5-6.2-2.9-9.4-3.9
	c-2.7-0.8-5.8-0.6-8.4-1.6c-6.1-2.3-12-5.2-18.1-7.7c-1.4-0.6-3.4-0.9-4.7-0.3c-12.7,5.7-25.7,10.5-39.4,13.3
	c-8.5,1.7-17.1,3.3-25.8,4c-7,0.6-14.1,0.1-21.1-0.7c-8.9-1.1-17.8-2.4-26.5-4.7c-9.6-2.6-18.9-6.3-28.3-9.6
	c-4.1-1.4-7.9-4.8-12.5-1.3c-0.9,0.7-2.1,1.2-3.1,1.7c-6,3.1-12.1,5.9-19,6.3C178.3,196.2,173.4,198.4,169.2,202.5z M371.9,481.2
	c-8.5,1.7-14.4,5.7-18.2,12.5c-3.2,5.8-5.6,11.9-7.1,18.4c-1.7,7.1-4.3,14.1-6.2,21.2c-2.8,10.4-6.2,20.5-11.4,30.1
	c-4.9,9-9.9,18.1-18,24.6c-5.6,4.6-12.2,8.1-18.4,11.8c-2.2,1.3-3.2,2.6-2.8,5.3c0.9,6.3,1.9,12.7,2.3,19c0.6,9.4,0.8,18.8,1.2,28.2
	c0,0.8,0.2,1.9,0.7,2.2c5,3.2,10,6.1,16.3,6.3c9.8,0.2,17.6-4.3,23.1-11.6c6.7-8.8,12.5-18.4,17.7-28.1
	c7.8-14.7,13.3-30.4,18.6-46.3c3.2-9.7,3.8-19.4,3.9-29.3c0.1-14.5-0.6-29-1-43.5C372.5,495.2,372.2,488.4,371.9,481.2z
	 M200.4,481.2c0,1.8,0.1,3,0,4.2c-0.6,7.1-1.7,14.1-1.8,21.2c-0.3,13.9-0.2,27.7-0.3,41.6c0,6.8,0,13.6,2.4,20.2
	c2,5.6,3.5,11.5,5.4,17.1c2.6,7.7,5.1,15.4,8.4,22.8c3.9,8.4,8.5,16.5,13.2,24.5c3.7,6.1,7.7,12.2,12.2,17.7
	c5.3,6.4,12.4,10.2,20.9,10.4c6.5,0.2,11.9-2.9,17.2-6.1c0.5-0.3,0.8-1.5,0.8-2.3c0.4-11.4,0.7-22.8,1.3-34.2
	c0.2-3.5,1.4-7,1.8-10.6c0.3-2.5,2.1-5.5-1.3-7.4c-1.8-1-3.6-1.8-5.4-2.7c-8.8-4.5-16.7-10.2-22.4-18.5c-3.8-5.6-7.7-11.3-11-17.3
	c-2.6-4.8-4.7-9.9-6.5-15.1c-1.8-5-2.8-10.2-4.3-15.3c-1.9-6.5-4-12.9-5.8-19.4c-2.3-8.2-5.2-16.2-10.3-23.1
	C211.4,484.2,206.3,482.5,200.4,481.2z M295.6,780.1c0.5,0.1,0.7,0.2,0.8,0.1c0.5-0.1,0.9-0.2,1.3-0.4c16.1-6.3,31.4-14.1,43.6-26.8
	c0.8-0.8,1.1-2.3,1.2-3.5c0.5-7.6,0.8-15.2,1.2-22.8c0-0.6,0.2-1.1,0.3-1.6c1-5.2,2-10.3,2.9-15.5c0.9-5.5,1.5-11,2.5-16.5
	c1.3-7.4,2.8-14.7,4.3-22c1.1-5.2,2.3-10.5,3.6-15.7c1.3-5.3,2.8-10.5,4-15.8c1.4-5.9,2.7-11.7,3.7-17.6c1.9-10.6,3.6-21.1,5.3-31.7
	c0.6-3.8,0.8-7.6,1.2-11.4c-3.3,7.2-6.1,14.5-8.8,21.7c-4.8,12.8-10.9,24.9-18.2,36.5c-4.3,6.8-8.4,13.8-14.9,19
	c-8.5,6.7-17.7,8.5-27.8,5.3c-2.9-0.9-5.5-2.8-8.8-4.4c-0.2,1.5-0.4,2.8-0.5,4.1c-0.3,3.2-0.4,6.5-0.8,9.7c-1.3,10.5-3,20.9-2,31.6
	c0.9,9.6,0.7,19.3,1.2,28.9c0.7,12.6,1.6,25.2,2.7,37.7C293.9,772.7,294.9,776.4,295.6,780.1z M201.3,577.2c-0.2,0-0.5,0-0.7,0
	c-0.1,1.1-0.2,2.1-0.1,3.2c0.3,3.3,0.7,6.6,1.1,9.9c0.5,4,0.9,7.9,1.4,11.8c0.3,2.5,0.8,4.9,1.3,7.3c0.9,4.5,2,8.9,2.9,13.4
	c0.9,4.3,1.5,8.7,2.5,13c1.3,5.3,2.9,10.6,4.2,15.9c1.3,5.4,2.4,10.9,3.6,16.4c1.4,6.5,2.9,13.1,4.2,19.6c1,5.2,1.6,10.4,2.5,15.6
	c1.4,8,3.1,15.9,4.1,23.9c0.9,7.4,0.8,15,1.3,22.4c0.1,1.2,0.7,2.4,1.4,3.4c0.9,1.2,2.2,2.2,3.3,3.3c9.9,9.4,21.6,15.8,34,21
	c2.6,1.1,5.2,2.2,7.9,3.4c0.5-1.4,1-2.3,1.1-3.3c0.9-7.2,1.7-14.5,2.5-21.8c0.2-2.3,0.1-4.7,0.3-7c0.6-7.1,1.6-14.2,1.8-21.2
	c0.4-12,0.3-24,0.3-36c0-3.4,0-6.9-0.3-10.3c-0.6-6.1-1.3-12.2-2.1-18.3c-0.2-1.8-0.5-3.5-0.8-5.7c-1.8,0.8-3.1,1.2-4.1,1.9
	c-5.4,3.7-11.6,4.4-17.8,3.5c-10.7-1.5-18.2-8.1-23.9-16.6c-5.6-8.4-10.5-17.3-15.4-26.1C210.5,606.4,204.6,592.3,201.3,577.2z
	 M212.5,415.3c-0.3,0-0.6,0.1-1,0.1c-0.6,2.4-1.5,4.7-1.7,7.1c-0.4,4.3-3.2,8.1-1.6,13c1.9,5.8,2.1,12,4.4,17.8
	c4.3,11.1,11.2,20.4,18.9,29.1c6.6,7.5,15,12.6,24.4,16.2c7.2,2.7,14.3,5,22.1,5.3c11.7,0.5,23.4,0.5,34.5-3.7
	c14.7-5.5,26.7-14.5,36-27.4c7.7-10.7,12.1-22.5,14.9-35.2c1.7-7.8-2.1-14.6-3.3-22.4c-1,0.9-1.5,1.3-2,1.8c-5,6-9.9,12.2-15,18.1
	c-11.4,13.3-25.5,22.3-42.3,27.1c-8.8,2.5-18,2.1-26.8,0.8c-8.7-1.2-16.8-5.3-24.3-10.1c-11.7-7.6-21.9-17-30.3-28.2
	C217.1,421.7,214.9,418.5,212.5,415.3z M168.6,334.9c2.7-7.2,5-13.3,7.3-19.5c1.5-3.9,3-7.8,4.4-11.7c1.8-5,3.6-10.1,5.4-15.1
	c1.3-3.5,2.5-6.9,0.6-10.7c-0.9-1.7-0.9-3.8-1.4-5.7c-0.6-2.1,0.3-3.2,2.2-3.7c2.3-0.7,4.6-1.3,6.9-2c8-2.6,15.8-5.8,23.9-7.8
	c10.9-2.6,22.1-4.8,33.2-6.2c9.4-1.2,19.1-1.1,28.6-1.2c7.3-0.1,14.6,0.5,21.9,0.7c6.7,0.2,13.4-0.1,20.1,0.5
	c6.8,0.6,13.6,1.8,20.3,3.2c6.4,1.3,12.8,3.1,19,5.1c6.9,2.1,13.7,4.7,20.7,7c3.6,1.2,4.9,2.5,4.7,5.9c-0.1,1.8-0.8,3.6-1,5.4
	c-0.2,2-0.7,4.1-0.2,5.9c0.8,3.4,2.2,6.7,3.3,10c3.7,10.2,7.4,20.5,11.1,30.7c1.1,3,2.3,6,3.5,9.3c4.8-5.6,8-11.4,9.7-18
	c1.2-4.6,2.1-8.9,0-13.7c-4.9-11.1-8.8-22.8-14.1-33.7c-6.7-13.6-14.6-26.7-22-39.9c-1.8-3.3-1.9-3.2-5.3-1.3
	c-6.1,3.5-12,7.3-18.3,10.2c-8.9,4.1-18.5,5.1-28.3,5.1c-25.7,0-51.4,0-77.1,0c-11.6,0-22.9-1.9-33.3-7.2c-4.7-2.4-9.3-5.2-13.8-7.9
	c-3-1.8-3.5-1.9-5.2,0.9c-4.5,7.6-9.2,15.1-13.3,22.9c-4.5,8.5-8.7,17.2-12.6,26c-3.6,8.1-6.8,16.4-10.1,24.6c-0.9,2.3-2.5,5-2,7.2
	c1.3,5.5,3.3,10.9,5.5,16.1C164.1,329.3,166.4,331.7,168.6,334.9z M230.6,756.7c0,1.2-0.1,1.9,0,2.6c0.4,2.5,0.9,4.9,1.3,7.4
	c0.8,4.5,1.5,9.1,2.4,13.6c1.4,7,2.8,14,4.2,21.1c0.9,4.4,1.9,8.8,2.9,13.2c1.2,5.7,2.6,11.3,3.7,17c1,5.2,1.7,10.5,2.6,15.8
	c1.3,7.3,2.8,14.5,4,21.8c1.3,7.7,2.2,15.5,3.4,23.3c1.4,8.8,3,17.6,4.4,26.5c1.2,7.8,2.3,15.7,3.4,23.5c1.2,8.8,2.4,17.6,3.4,26.4
	c0.9,7.7,1.6,15.4,2.3,23.2c0.6,6.6,5.6,10.3,12.4,8.7c0-1,0-2-0.1-3c-0.3-2.8-1-5.7-1-8.5c0-2.7,0.9-5.4,1.2-8.1
	c0.9-7.6-2-14.8-2.7-22.2c-0.9-8.6-2.5-17.3-2.7-25.9c-0.3-10.5,0.5-20.9,0.8-31.4c0.1-2.1,0-4.3,0.2-6.4c1-10.3,2.6-20.6,3-31
	c0.5-13.6,1.2-27.3-0.7-40.9c-1.2-8.5-1.8-17.1-2.4-25.7c-0.3-3.5-0.2-7.1,0-10.6c0.2-2.5-0.7-3.7-3-4.7c-10.7-4.5-21.4-9-30.8-15.9
	C238.8,763.4,235.1,760.2,230.6,756.7z M290.9,1001.6c1.8-0.5,3.1-0.8,4.3-1.1c5.3-1.2,7.5-3.5,8.2-9c0.5-4,0.7-8.1,1.1-12.2
	c1.1-9.7,2.3-19.3,3.4-29c0.4-2.9,0.7-5.8,1.2-8.7c1.3-8.5,2.8-17,4.1-25.5c1.5-9.8,2.9-19.5,4.4-29.3c1.6-10.6,3.1-21.2,4.7-31.9
	c0.8-5,1.6-10.1,2.6-15.1c1.2-6.2,2.8-12.3,4-18.4c1.3-6.3,2.4-12.5,3.7-18.8c1.4-6.9,2.8-13.8,4.2-20.6c1-5.2,2-10.3,3-15.5
	c0.5-2.9,1-5.9,1.5-9c-0.8,0.2-1.1,0.2-1.3,0.3c-0.5,0.3-0.9,0.7-1.3,1.1c-7.1,6.8-15.3,11.9-24.1,16.1c-5.5,2.6-11.2,4.9-16.7,7.5
	c-0.9,0.4-2.1,1.6-2.1,2.5c-0.5,8.1-0.7,16.3-1.2,24.4c-0.3,4.6-0.9,9.2-1.3,13.8c-0.7,7.8-2.2,15.7-1.9,23.5
	c0.4,13.1,1.9,26.3,3,39.4c0.6,7.6,1.9,15.2,2.1,22.9c0.2,9.5-0.2,19.1-0.7,28.6c-0.4,7.6-1.4,15.1-2.3,22.6
	c-0.5,3.9-1.6,7.8-1.9,11.7c-0.3,4-0.2,8,0,12c0.1,2.8,0.9,5.7,0.8,8.5C292.1,995.2,291.4,998.1,290.9,1001.6z M339.1,1037.7
	c2.9-1.5,4.1,0.6,5.8,1.3c3.1,1.3,4.4,5.6,9.4,5.2c-0.6-1.3-0.8-2.6-1.6-3.4c-1.1-1.1-2.7-1.7-3.8-2.8c-0.6-0.6-0.7-1.7-1-2.6
	c0.3-0.2,0.6-0.3,0.9-0.5c2.2,1.8,4.3,3.6,6.6,5.3c0.7,0.5,1.7,0.7,2.6,1c-0.2-1.1-0.1-2.5-0.7-3.1c-2.3-2.1-5-3.7-7.3-5.8
	c-4.1-3.8-8-7.8-11.8-11.9c-6.5-7.1-9.1-16.5-14.2-24.5c-0.3-0.4-0.4-1.1-0.4-1.6c-0.4-8-0.9-15.9-1-23.9c0-5.6,0.5-11.3,1-16.9
	c0.6-5.2,1.4-10.5,2.4-15.6c1.2-6.4,2.7-12.8,4.2-19.2c1.7-6.9,3.1-13.9,5.3-20.6c2.9-8.4,6.6-16.6,9.7-24.9
	c1.9-5.2,4-10.4,4.7-15.8c1.1-7.5,1-15.2,1.4-22.8c0.2-3.3,0.8-6.7,0.6-10c-0.4-6.3-1.2-12.5-1.9-18.7c-0.3-3.1-0.8-6.2-1.3-9.3
	c-1.4-8.6-2.8-17.1-4.2-25.7c-0.4-2.7-0.8-5.5-1.3-8.3c-1,2.4-1.5,4.9-2,7.3c-1.3,6.9-2.5,13.9-3.8,20.8c-1.3,6.6-2.7,13.2-4.1,19.8
	c-0.9,4.3-1.7,8.5-2.6,12.8c-1.4,6.4-2.8,12.8-4.1,19.2c-1,5.3-1.6,10.6-2.5,15.9c-0.9,5.6-2.1,11.2-3,16.9c-1,6.3-1.7,12.7-2.6,19
	c-1,7.1-2.1,14.3-3.2,21.4c-0.4,3-0.8,6-1.3,9.1c-1,6.6-2.1,13.2-3.1,19.8c-0.6,3.9-0.9,7.9-1.4,11.8c-0.9,7.3-1.9,14.6-2.9,22
	c-0.8,5.9-1.2,12-2.5,17.8c-0.9,3.7-3.2,6.8-7.9,6.6c-1,0-2.1,0.5-3.3,0.9c0.3,0.7,0.4,1.1,0.6,1.2c5,4.4,8.6,9.7,11.1,15.9
	c0.8,1.9,1.8,3.9,3.2,5.4c3.6,3.7,7.4,7.1,11.1,10.7c3.4,3.4,7.6,5.1,12.3,5.8c0.7,0.1,1.8,0.2,2,0.6c1.8,3.5,5.2,4.2,8.5,4.4
	c1.7,0.1,3.4-1.4,5.1-2.1c-0.8-1.2-1.5-2.4-2.4-3.6c-0.4-0.5-1.1-0.7-1.6-1C341.8,1039.8,340.6,1038.8,339.1,1037.7z M231.5,1036.9
	c0.2,0.4,0.5,0.7,0.7,1.1c-1.9,1.5-3.7,3.2-5.8,4.6c-1.9,1.3-1.7,2.4-0.3,3.7c2.3,2.2,9.9,0.7,11.4-2c0.5-0.8,1.5-1.7,2.5-1.8
	c4.7-0.9,9.1-2.3,12.7-5.7c3.5-3.3,6.9-6.5,10.3-9.9c1.3-1.3,2.7-2.7,3.3-4.4c2.4-6,5.6-11.5,9.7-16.5c0.6-0.8,1-1.8,1.5-2.6
	c-0.9-0.3-1.8-0.8-2.8-0.9c-3.6-0.4-6.4-2.4-7.3-6c-0.9-3.6-1.6-7.2-2-10.8c-0.9-7.9-1.5-15.8-2.4-23.7c-1.1-9.4-2.3-18.7-3.6-28
	c-0.4-3-0.9-6-1.4-9c-0.9-5.5-1.9-10.9-2.8-16.4c-0.9-5.7-1.7-11.5-2.6-17.3c-1.1-7-2.1-14-3.2-21c-0.8-5.3-1.6-10.6-2.5-15.9
	c-0.9-5.5-2-10.9-3-16.3c-0.9-4.5-1.7-9-2.6-13.5c-1.3-6-2.7-12-4-18c-0.9-4.2-1.7-8.4-2.5-12.7c-1-5.4-2.1-10.8-3.1-16.3
	c-0.6-2.9-1.1-5.8-1.7-8.7c-0.3-1.5-0.6-3-0.9-4.5c-1.4,5.2-2.1,10.2-2.9,15.3c-0.8,5-1.8,10-2.5,15c-1.1,7.2-2.5,14.4-3,21.7
	c-0.6,8.2,0,16.4-0.3,24.6c-0.5,12.5,2,24.4,7.2,35.7c5.5,11.9,9.7,24.3,12.9,36.9c2.7,10.6,4.9,21.4,6.6,32.2
	c1.3,8.7,1.7,17.6,2.2,26.4c0.2,2.8-0.6,5.6-0.8,8.5c-0.5,6.6-0.3,13.1-3.1,19.7c-3.8,8.8-8.6,16.7-15,23.6
	c-4.5,4.9-9.9,9-14.8,13.5c-0.9,0.8-1.4,2-1.9,3.1c-0.1,0.3,0.3,1.1,0.7,1.3c0.4,0.2,1.1-0.1,1.5-0.4c2.1-1.8,4.2-3.8,6.4-5.5
	c0.6-0.4,1.6-0.2,2.4-0.3c0.1,0.3,0.1,0.6,0.2,0.9c-1.5,1.2-2.9,2.4-4.4,3.7c-1.3,1.2-3.5,2-1.9,4.4
	C224.1,1043.6,226.4,1037.8,231.5,1036.9z M53.3,498.8c0.2,0.4,0.5,0.8,0.7,1.3c-2.5,1.9-5,3.8-7.4,5.8c-0.5,0.4-1.1,1-1.3,1.6
	c-2,6.9-5.2,13.2-8.9,19.3c-2.7,4.5-5.2,9.2-7.4,14c-0.6,1.3-0.2,3.8,0.8,4.7c0.7,0.7,3.4,0.3,4.6-0.6c1.9-1.4,3.2-3.5,4.7-5.4
	c3.2-4.2,6.5-8.3,9.4-12.7c6.9-10.3,13.3-20.8,20.3-31c6.8-9.9,14.1-19.6,21.2-29.3c10.7-14.9,18.3-31.4,25.9-47.9
	c3.2-7.1,6.5-14.1,9.6-21.2c2.1-4.8,4.1-9.7,6-14.5c1.8-4.4,3.5-8.7,5.2-13.1c2-5.3,4-10.7,5.8-16c1.5-4.5,2.9-9,4.1-13.6
	c1.3-4.8,2.3-9.6,3.5-14.5c-1,0.3-1.5,0.8-1.9,1.4c-2,3.3-3.6,6.7-5.8,9.8c-4.4,6.2-9,12.2-13.7,18.2c-9.4,11.9-20.9,21.6-33.1,30.5
	c-0.9,0.7-1.7,1.8-2.1,2.9c-1.7,4.7-3.4,9.5-4.8,14.3c-1.9,6.4-3.5,12.9-5.2,19.3c-1.4,5.4-2.6,10.9-4,16.3c-1.9,7.3-4.2,14.6-6,22
	c-1,3.9-1.6,4.7-5.5,5.6c-4.4,0.9-7.8,3.2-10.6,7c-5.6,7.5-11.2,15-17.4,22c-3.8,4.3-8.7,7.6-13.2,11.4c-2.2,1.8-1.9,4.7,0.7,5.3
	c1.9,0.4,4.4,0.5,5.9-0.3c5.3-3,10.3-6.5,15.4-9.7C50.2,500.4,51.8,499.7,53.3,498.8z M517.8,500c0.2-0.3,0.4-0.6,0.5-0.9
	c0.9,0.3,2,0.5,2.8,1c4.3,2.7,8.5,5.6,12.8,8.3c3,1.9,6,4.2,9.9,3.2c1.1-0.3,2.4-1.3,2.9-2.3c0.3-0.7-0.5-2.1-1.1-2.9
	c-1-1.3-2.2-2.5-3.6-3.4c-10.6-7-17.9-17-25.1-27c-3.8-5.3-7.7-9.7-14.6-10.4c-1.7-0.2-3.1-1.3-3.6-3.4c-2.5-10.4-5-20.7-7.7-31.1
	c-2.9-11.2-5.8-22.4-8.9-33.6c-1.6-5.8-3.6-11.3-9.2-15.2c-14.3-9.8-26.5-22-36.7-36.1c-4.1-5.7-7.6-11.9-11.4-17.9
	c-0.6-0.9-1.3-1.6-1.9-2.4c-0.4,0.2-0.7,0.4-1.1,0.6c3.2,10.6,6.1,21.3,9.6,31.8c2.4,7.3,5.4,14.3,8.3,21.4
	c5.7,13.8,11.3,27.7,17.5,41.3c4.4,9.8,9.3,19.4,14.8,28.6c6.3,10.6,13.4,20.8,20.4,31.1c5.2,7.6,11.1,14.8,16.3,22.5
	c7.8,11.4,15.2,23.1,22.8,34.6c1.9,2.9,3.4,6.3,6.9,7.6c1.2,0.5,3,0.6,4.1,0c0.7-0.4,1.2-2.4,0.8-3.3c-1.7-4.1-3.3-8.3-5.6-12
	c-4.2-6.9-8.5-13.6-10.9-21.4c-0.4-1.2-0.8-2.7-1.7-3.5c-1.7-1.5-3.8-2.4-5.7-3.7C518.8,501.2,518.3,500.5,517.8,500z M473.7,380.2
	c0.2-0.2,0.4-0.4,0.6-0.6c-0.1-0.4,0-0.8-0.2-1.1c-4.1-7.3-8.2-14.7-12.4-21.9c-2.7-4.6-6.1-8.8-8.6-13.5c-3.8-7-3.9-15-5.5-22.6
	c-2-9.5-3.4-19.2-6-28.6c-2.1-7.6-4.8-15.3-8.5-22.2c-4.7-8.6-8.4-17.4-10.5-27c-1.7-7.5-3.6-15-6.4-22c-2-5-5.4-9.6-8.8-14
	c-2.6-3.3-3-2.9-6.4-0.2c-7.5,6-15,11.8-22.6,17.6c-1.1,0.8-1.4,1.2-0.6,2.6c2.7,4.4,5.1,9,7.8,13.3c9.6,15.5,17,32,23.8,48.8
	c3.9,9.6,8,19.2,12.3,28.7c4.6,10.1,10.3,19.5,17,28.3c8.1,10.5,17.2,20.1,27.4,28.5C468.6,376.6,471.2,378.3,473.7,380.2z
	 M96.2,381.2c1.4-0.5,2-0.6,2.4-1c4.6-3.7,9.4-7.2,13.5-11.3c6.3-6.4,12.2-13.4,18.2-20.1c7.7-8.5,13.4-18.3,18.7-28.4
	c3.2-6.2,5.9-12.6,8.7-19c2-4.5,3.9-9,5.8-13.5c3.9-9.2,7.1-18.7,11.6-27.5c5.6-11,12.2-21.5,18.5-32.2c1.1-1.9,0.8-2.9-0.9-4.2
	c-8-6.1-16-12.3-23.8-18.6c-1.8-1.5-3-1.2-4.1,0.3c-1.8,2.5-3.6,5-5.1,7.7c-2.5,4.7-5.4,9.3-7,14.4c-2.2,6.9-3.2,14.1-4.9,21.1
	c-0.7,3-1.1,6.3-2.5,8.9c-4.5,8.4-9.5,16.6-12.4,25.8c-1.9,6-3.5,12.1-5,18.2c-1,4.2-1.7,8.5-2.5,12.7c-1,4.9-2.4,9.8-2.8,14.8
	c-0.5,6.2-2.4,11.9-5.4,17c-5.2,8.8-10.9,17.3-16.3,26.1C99.3,374.9,98,377.7,96.2,381.2z M187.5,278.2c1.5,1.4,2.2,2.6,3.2,3
	c9.3,3.9,18.9,7,28.8,9.2c6.4,1.4,12.9,2.5,19.4,3.5c7.4,1.1,14.8,2.1,22.2,2.9c4.4,0.5,8.9,0.4,13.4,0.5c7.4,0.1,14.9,0.5,22.3,0.2
	c10.2-0.5,20.3-1.5,30.4-2.6c5.3-0.6,10.6-1.4,15.9-2.5c5.9-1.2,11.7-2.5,17.4-4.2c7.1-2.1,14.1-4.6,21.2-7c0.7-0.3,1.4-1.6,1.4-2.4
	c0-0.5-1.1-1.3-1.9-1.6c-0.7-0.3-1.6-0.2-2.5-0.4c-10.7-1.7-21.3-4.2-32-4.9c-14.9-1-29.9-1-44.8-1.1c-14.4,0-28.8,0.4-43.2,0.7
	c-12.6,0.3-25.2,0.3-37.8,1.2c-8.7,0.6-17.4,2.3-26.1,3.6C192.7,276.5,190.6,277.4,187.5,278.2z M214.6,184.2c0,0.3,0,0.7,0.1,1
	c28.4,12.4,57.6,20.2,89.1,15.8c18.6-2.6,36.3-8.1,53.8-16c-1-0.7-1.5-1.3-2.1-1.6c-6.3-2.8-12.4-5.7-18.8-8.1
	c-8.5-3.2-15.7-7.6-19.9-16c-0.9-1.8-2-1.1-3,0c-6.3,6.5-14.5,8.4-22.9,9.2c-6.5,0.6-12.9,0-19.3-1.9c-5-1.5-9.3-3.9-13.1-7.3
	c-1.4-1.3-2.1-1.3-3.1,0.5c-1,1.8-2.5,3.4-3.8,5c-6.7,8.3-17,10.4-25.8,14.9C222.1,181.5,218.3,182.7,214.6,184.2z M375,308.1
	c-1.4,1-2.2,1.5-2.9,2.1c-3.2,2.3-6.3,4.8-9.5,7c-8,5.6-17,9.5-25.8,13.8c-12.1,6.1-24.8,9.8-38.3,10.5c-11.9,0.6-23.9,0.4-35.8-1.1
	c-0.3,0-0.6-0.1-0.8-0.1c-7.9-1.9-15.7-4.1-23.2-7.6c-10.2-4.7-20.4-9.4-29.6-15.9c-3.8-2.7-7.5-5.7-11.3-8.5
	c-0.2,2,0.2,3.8,0.6,5.5c0.9,4.3,1.6,8.7,2.6,13c0.4,1.6,0.8,3.6,2,4.4c5.5,4,11,8.1,16.9,11.5c9.3,5.5,19.1,10.1,29.6,13
	c4.6,1.3,9.2,2.8,13.8,3.7c6,1.1,12,2.2,18.1,2.2c7.9,0.1,16,0.2,23.7-1.4c9.5-1.9,18.8-5.3,28.1-8.5c13.1-4.5,24.7-11.8,35.7-20.1
	c0.7-0.5,1.3-1.5,1.5-2.4c1.2-4.6,2.3-9.1,3.3-13.7C374.1,313.4,374.4,311.1,375,308.1z M212.1,376c0.3,4,1.2,7.2,0.8,10.3
	c-0.7,5.7,1.3,9.6,5.6,13.2c5.9,4.9,11.1,10.7,17,15.7c8.3,6.9,17.4,12.6,26.8,18c8.4,4.8,17.5,6.2,26.8,6.6c3.6,0.1,7.5-0.8,11-2.2
	c14.5-5.7,27.1-14.6,38.8-24.8c6.2-5.4,11.9-11.3,18-16.8c1.6-1.5,2.2-2.9,2.2-5c0-3.3,0.2-6.7,0.3-10c0-1.3,0-2.6,0-4.3
	c-0.9,0.6-1.3,0.8-1.6,1.1c-8.5,6.9-16.7,14.2-25.5,20.6c-5.8,4.3-12.2,7.7-19.3,9.5c-5.6,1.4-11,3.6-16.7,4
	c-9.8,0.7-19.7,0.7-29.5-1.7c-8.4-2.1-16.4-5.1-23.6-9.7c-10.4-6.7-20-14.3-28.8-23.1C213.7,376.9,213,376.6,212.1,376z
	 M368.6,336.3c-0.6-0.1-0.9-0.3-1.2-0.2c-0.4,0.1-0.9,0.3-1.2,0.6c-8.9,6.3-18.1,12-28.3,15.9c-9.2,3.5-18.5,6.7-27.9,9.1
	c-6.8,1.7-14,2-21.1,2.5c-5.2,0.3-10.5,0.2-15.6-0.5c-5.9-0.8-11.6-2.4-17.4-3.9c-5.6-1.4-11.3-2.7-16.6-4.8
	c-12.3-4.9-24-11-34.4-19.3c-0.4-0.3-1.1-0.3-2.1-0.6c1.1,4.5,2,8.6,3.1,12.6c0.5,1.9,1.1,4.1,2.5,5.2c3.7,3.2,7.8,6,11.7,8.9
	c8,5.9,16.5,10.8,25.6,15c8.5,3.9,17.2,6.6,26.5,7.4c4.7,0.4,9.4,0.7,14.1,1c0.5,0,0.9,0,1.4,0c2.2-0.3,4.3-0.8,6.5-0.8
	c5.7-0.1,11.3-0.7,17-2.1c11.1-2.8,21.2-7.8,30.8-13.7c7.7-4.7,14.9-10.3,22.3-15.6c0.3-0.2,0.6-0.7,0.7-1.1
	C366.1,346.7,367.3,341.6,368.6,336.3z M208.5,355.9c0,1.4-0.1,2.2,0,2.9c0.7,3.6,1.4,7.2,2.3,10.7c0.2,0.8,0.6,1.6,1.2,2.1
	c4.7,4.6,9.3,9.5,14.4,13.6c9.4,7.6,18.9,15.3,30.5,19.7c6.4,2.4,13,4.4,19.7,4.7c7.7,0.4,15.5,0,23.2-0.9c5.1-0.6,10.1-2.4,15-4
	c7.1-2.2,13.3-6.3,19.1-10.7c8.3-6.2,16.9-12.1,23.8-19.9c0.8-1,2.1-1.8,2.4-2.9c1.2-4.6,2.2-9.2,3.3-14c-0.5,0-0.9-0.1-1.2,0
	c-0.5,0.2-1,0.5-1.4,0.8c-11.6,8.6-23.5,16.7-37,22.2c-8.4,3.4-17,5.8-26.1,6.1c-6.7,0.3-13.5,0-20.2,0.1c-7.8,0.1-15.5-1-22.8-3.6
	c-11.8-4.2-22.8-9.8-33-17.1C217.4,362.7,213.3,359.5,208.5,355.9z M213.4,398.5c-0.5,3.7-1,7.1-1.4,10.4c-0.1,0.8,0.1,1.7,0.6,2.3
	c2.6,3.7,5.2,7.4,7.9,11c11,14.2,23.7,26.5,40.4,33.9c4.3,1.9,8.8,4.5,13.2,4.8c10.5,0.6,21,1.5,31.5-2.6c10.3-4,19.7-9.3,27.8-16.7
	c9.5-8.6,17.7-18.4,25-28.9c0.4-0.5,0.9-1.1,0.9-1.6c-0.1-3.7-0.2-7.4-0.4-11.1c-0.1-1.4-0.9-1.8-2-0.8c-1.9,1.7-3.8,3.4-5.6,5.1
	c-3.9,3.7-7.8,7.5-11.8,11c-8.8,7.6-18.3,14.4-28.6,19.9c-6.1,3.2-12.4,5.9-19.5,6c-3.4,0.1-6.8,0.3-10.1,0
	c-3.4-0.3-6.9-0.6-9.9-1.9c-6.3-2.7-12.4-6-18.5-9.2c-9.7-5.1-17.7-12.5-26-19.6c-4.1-3.5-7.8-7.5-11.7-11.2
	C214.6,398.9,213.9,398.8,213.4,398.5z M382.1,284.2c-64.6,20.8-128,20.9-191.6,0.1c0.3,2.6,0.9,5.2,3.5,6.8
	c12.5,7.6,24.9,15.5,39,19.8c8.3,2.5,16.6,5.5,25.1,7.2c7.7,1.5,15.6,2.1,23.4,2.3c6.8,0.2,13.7-0.5,20.5-0.8c1.8-0.1,3.6,0,5.3-0.4
	c8.9-2.1,17.8-4,26.5-6.6c9.7-2.9,19.2-6.7,27.9-12c5.7-3.5,11.6-6.6,17.1-10.4C380.4,289.2,380.9,286.5,382.1,284.2z M470.8,478.4
	c1.4-1.8,2.6-3.1,3.3-4.5c0.6-1.2,1-2.7,1-4c0.1-3.6,1.6-7.1-0.6-11c-6.5-11.5-12.8-23.2-18.6-35.1c-4.8-9.9-9-20.2-13.1-30.5
	c-5.6-14-11.2-27.9-16-42.1c-3.5-10.5-5.7-21.4-8.6-32.2c-0.4-1.5-1.1-3-1.8-4.8c-0.7,0.8-0.9,0.9-0.9,1.1
	c-1.5,7.9-5.4,14.6-10,21.1c-0.8,1.1-0.8,3.2-0.4,4.7c1.3,4.8,2.9,9.5,4.6,14.2c1.7,4.7,3.6,9.2,5.4,13.9c1.9,5.1,3.9,10.1,5.5,15.3
	c1.9,6.4,3.3,12.9,5.1,19.3c3.7,12.7,10.5,24,17.5,34.9C452,451.8,461.3,464.5,470.8,478.4z M155.8,315.2c-0.3,0.1-0.5,0.2-0.8,0.2
	c-0.5,2.1-1,4.3-1.6,6.4c-1.7,6.7-3.4,13.4-5.3,20c-1.9,6.6-3.8,13.3-6.1,19.8c-1.8,5.3-4.1,10.4-6.2,15.6
	c-3.9,9.5-7.7,19.1-11.8,28.5c-3.4,7.7-6.9,15.4-10.7,23c-4.6,9.3-9.5,18.4-14.3,27.6c-1.2,2.2-3.2,4.5-3.2,6.7
	c0,4.1,1.2,8.1,2.2,12.1c0.3,1.1,1.7,1.9,2.6,2.9c0.8-0.8,1.7-1.5,2.3-2.3c4.3-6,8.6-11.9,12.6-18c5.1-7.7,9.8-15.6,14.9-23.3
	c7.3-10.8,13.7-22,16.8-34.8c1.4-5.6,2.8-11.1,4-16.7c0.8-4,1.6-7.8,3.8-11.3c1.9-3,3.9-5.9,5.1-9.2c2.5-6.9,4.5-14,6.5-21.1
	c0.6-2.2,0.8-4.3-1-6.4c-3.5-4.3-6.5-8.9-8-14.4C157.4,318.7,156.5,317,155.8,315.2z M193.6,293.8c0.7,4.2,0.9,8.1,3.8,10.9
	c3.3,3,6.7,6,10.3,8.5c13.5,9.5,28.2,16.7,43.9,22.1c8.2,2.8,16.6,3.9,25,4c9.7,0.2,19.5-0.2,29.2-1c5.7-0.5,11.5-1.7,16.9-3.7
	c7.1-2.6,13.9-6.1,20.8-9.2c9.1-4.2,17.4-9.7,25.4-15.6c5.4-4,9.5-8.6,9.6-16.2C317.2,332.3,255.7,332.6,193.6,293.8z M384.7,275.1
	c-0.6-2.9-1.2-4.5-3.7-5.1c-4.6-1.2-9.1-2.8-13.6-4.5c-12.1-4.7-24.7-8.1-37.5-9.4c-13.2-1.4-26.6-1.8-39.9-2.3
	c-5.5-0.2-11.1,0.6-16.7,0.7c-12.3,0.1-24.7,0-36.9,2.5c-5.8,1.2-11.7,2.1-17.4,3.7c-7.6,2.2-15,4.9-22.5,7.4
	c-2.5,0.8-5.1,1.6-7.6,2.4c-1.7,0.6-2.3,2-1.6,3.5c0.3,0.6,1.8,0.8,2.8,0.9c1,0.1,2-0.2,3-0.4c10.6-1.6,21.2-3.8,31.8-4.7
	c9.6-0.9,19.3-0.4,28.9-0.6c13.4-0.2,26.9-0.5,40.3-0.6c6.1,0,12.2,0.4,18.4,0.5c12.8,0.4,25.6,0.3,38.4,1.2
	c9.3,0.7,18.4,2.7,27.7,4.1C380.5,274.7,382.4,274.9,384.7,275.1z M498.2,552.8c-0.4-1.2-0.7-2.2-1.1-3.1c-3.4-7.4-4.6-15.4-6-23.4
	c-0.1-0.7,0.5-1.6,0.7-2.4c0.5,0.6,1.3,1.2,1.4,2c1.3,8,3,15.9,6,23.4c1,2.6,2.4,5,5,6.4c2.5,1.3,4.7,0.3,4.6-2.4
	c-0.5-8.2-1-16.3-5.1-23.7c-2.2-4.1-4.2-8.4-6-12.8c-5.4-13.6-10.5-27.3-15.8-40.9c-1.1-2.8-2.3-5.6-3.5-8.4c-0.8,0.8-1,1.5-1.2,2.2
	c-0.8,3.8-1.3,7.7-5.1,10.1c-0.7,0.4-1,2.1-0.8,3c1.8,9.1,3.5,18.2,5.7,27.2c1.7,7.1,3.9,14.1,6.2,21c2,5.9,4.4,11.6,6.8,17.3
	C491.6,551.7,494.1,553,498.2,552.8z M94,467.6c-0.2-0.1-0.4-0.1-0.6-0.2c-0.8,2.3-1.5,4.6-2.4,6.8c-4.8,11.9-9.5,23.8-14.3,35.7
	c-3,7.2-5.7,14.6-9.2,21.5c-3.6,7-3.5,14.5-4,22c-0.1,0.9,0.7,2.3,1.4,2.7c0.8,0.3,2.3-0.1,2.9-0.7c1.7-1.6,3.8-3.3,4.4-5.3
	c2.5-7.6,4.5-15.5,6.7-23.2c0.3-1.1,0.9-2,1.3-3c0.4,0.1,0.7,0.3,1.1,0.4c-1,9.8-4.5,19.1-7.2,28.7c5.4-0.3,7.7-4,9.2-7.8
	c3.3-8.6,6.4-17.2,9.1-26c1.9-6.1,2.9-12.5,4.3-18.7c1-4.3,2.1-8.5,3-12.8c0.7-3.2,1.7-6.5-1.8-9c-1.2-0.8-1.8-2.6-2.3-4.1
	C94.8,472.3,94.5,469.9,94,467.6z M485,474.8c-0.2,0.1-0.4,0.2-0.7,0.3c0.8,2.1,1.5,4.1,2.3,6.2c3.9,10.1,7.4,20.4,11.7,30.3
	c4.7,10.7,10,21.2,15.5,31.6c3.1,5.8,6.4,11.7,12.1,15.5c1.1,0.7,2.8,1,4,0.7c0.5-0.1,1-2.2,0.9-3.3c-0.3-2-1-3.9-1.7-5.8
	c-2.6-6.3-5.3-12.6-7.9-18.9c-2.2-5.2-3.9-10.7-6.8-15.4c-6-9.6-12.8-18.7-19.3-27.9C491.8,483.5,488.3,479.2,485,474.8z
	 M88.5,473.7c-0.3-0.1-0.5-0.3-0.8-0.4c-0.7,0.7-1.4,1.3-1.9,2.1c-2,3-3.9,6.1-6,9c-6.2,8.9-12.5,17.7-18.8,26.6
	c-3.5,5-6.5,10.3-8.3,16.3c-1.2,3.8-2.9,7.4-4.5,11.1c-2.4,5.7-4.9,11.4-7,17.3c-0.4,1,0,3.1,0.8,3.7c0.8,0.6,2.8,0.3,3.7-0.4
	c2.1-1.7,4.2-3.8,5.8-6c7.2-9.5,13-19.7,17.4-30.8c3.8-9.9,8.1-19.6,12.1-29.4C83.6,486.4,86,480.1,88.5,473.7z M314.1,141.3
	c-0.3,0-0.6,0-0.8,0.1c-0.3,0.1-0.5,0.2-0.7,0.4c-5.9,5.2-12.5,8.4-20.5,9.3c-11.8,1.3-22.6-0.6-31.9-8.4c-0.4-0.4-1.1-0.5-1.7-0.7
	c-0.2,0.6-0.6,1.3-0.7,1.9c-0.1,3.2-0.2,6.3-0.1,9.5c0,0.9,0.3,2.2,1,2.7c3.2,2.5,6.3,5.2,9.8,7c7.4,3.6,15.4,4.1,23.4,3.2
	c7.9-0.9,15.3-3.4,21.1-9.3c0.7-0.7,1.6-1.9,1.5-2.8c-0.6-4-0.7-8-0.1-12C314.5,141.9,314.2,141.6,314.1,141.3z M216,1028.7
	c0.2,0.4,0.4,0.8,0.6,1.2c-2.1,1.7-4.3,3.3-6.3,5.1c-0.5,0.5-0.2,1.7-0.3,2.6c0.8-0.1,1.7,0,2.3-0.4c1.4-1,2.5-2.4,3.9-3.4
	c7-4.9,12.9-10.8,17.8-17.7c2-2.8,3.9-5.8,5.9-8.6c-0.3-0.2-0.5-0.4-0.8-0.6c-1.9,1.8-3.7,3.8-5.9,5.4c-7.1,5.4-14.4,10.5-21.5,15.9
	c-0.9,0.7-1.5,1.7-2.3,2.6c0.2,0.2,0.4,0.3,0.6,0.5C212,1030.5,214,1029.6,216,1028.7z M361.6,1031.3c-0.1-0.8,0-1.8-0.3-2.1
	c-9-6.8-18.1-13.5-27.2-20.2c-0.3,0.3-0.6,0.5-0.9,0.8c4,5,7.7,10.4,12.1,15c4.6,4.7,9.9,8.5,15,12.7c0.3,0.3,1.2,0.5,1.3,0.4
	c0.3-0.4,0.7-1.2,0.5-1.6c-0.5-1-1.2-1.9-2-2.6c-1.7-1.4-3.5-2.6-5.4-4.1C357.7,1027.6,359.1,1030.7,361.6,1031.3z M281.8,1004.3
	c-6.2,5-10.2,10.9-12.7,18.6c5-0.6,8-3.3,10.9-6.1C283.7,1013.5,282.9,1009.2,281.8,1004.3z M303,1023.3c0.1-0.5,0.2-0.8,0.1-1
	c-2.4-5.3-5.2-10.3-9.3-14.4c-1-1-2.1-1.7-3.4-2.8C287.2,1015.3,295.4,1021.5,303,1023.3z"/>
<path d="M437.1,224.6c0.6-9.8,4.1-17.7,9.1-25.3c2.2-3.4,3.3-7.4,4.9-11.1c0.7-1.5,1.1-3.1,1.9-4.6c1.8-3.7,1-7.2-0.4-10.7
	c-2-4.7-4.8-9.2-4.5-14.7c0.1-2-1.2-2.2-2.8-1.8c-3.7,0.9-7.3,2-11,2.7c-6.6,1.2-12.1,0-14.8-6.4c-1.3-2.9-0.6-6.8-0.2-10.3
	c0.2-2.2,0.9-4.2-1.8-5.3c-0.5-0.2-1-1.1-1.1-1.7c-0.5-2.4-0.9-4.8-1.4-7.1c-0.1-0.5-0.5-1-0.3-1.3c2.2-4.7-1.6-6.2-4.2-8.4
	c-2.9-2.4-3.2-4.8-1-7.9c4.5-6.5,7.8-13.6,10-21c0.9-3.1-0.4-7.1-1.5-10.4c-2.6-7.5-2.6-14.8,0-22.2c1-2.8,2.1-5.5,3-8.3
	c0.2-0.6,0.1-1.5-0.1-2.2c-2.2-6.3-1.4-8.6,4-12.5c4.8-3.4,10-5.8,15.5-7.7c5.9-2,11.9-4.1,17.9-6c1.5-0.5,3.1-0.2,4.7-0.4
	c8-0.8,15.8,0.2,23.7,1.7c9,1.7,17.2,4.7,24.6,9.7c5.7,3.8,10.7,8.9,14.2,14.9c4.7,8.2,8.5,16.9,9.9,26.3c1.5,9.8,1.9,19.7-1,29.5
	c-1.3,4.4-2.8,8.6-5.6,12.1c-2,2.5-4.6,4.5-7,6.6c-1,0.9-2.3,1.6-3.4,2.4c-5.6,3.7-7.1,9.6-7.7,15.5c-0.4,4.3,1.3,8.7,1.6,13.1
	c0.5,7.7,5.5,12.4,10.6,17.1c5.8,5.3,11.1,11,15,17.9c3.9,6.9,6.2,14.2,8,21.7c1,4.2,1.6,8.5,2.3,12.8c0.4,2.3-0.5,3.2-3.2,3.2
	c-4.7-0.1-9.3,0.4-14,0.4c-7.2,0-14.3-0.5-21.5-0.5c-19.2,0-38.3,0.1-57.5,0.1C447,224.6,442.1,224.6,437.1,224.6z M426.7,131.9
	c0,0.3-0.1,0.6-0.1,0.9c-2-0.2-3.9-0.6-5.9-0.6c-0.9,0-1.9,0.9-2.8,1.4c0.6,0.9,0.9,2.3,1.7,2.7c1.8,0.8,2.1,1.9,1.6,3.6
	c-0.4,1.4-1,2.8-1.3,4.2c-1.5,6.3,0.7,11.3,6.9,13c3.4,0.9,7.5,0.5,11-0.2c5.6-1.2,10.9-3.3,16.4-5c5.4-1.6,9.3-4.5,11.2-10.1
	c3-9.1,6.5-18,9.6-27.1c2.1-6.2,3.9-12.5,5.8-18.7c2.1-7.1,3.9-14.2,6-21.3c1.7-5.8,3.9-11.5,5.4-17.4c1.3-5.1,2-10.4,2.8-15.6
	c0.7-4.2,1.3-8.4,1.8-12.7c0.2-1.6-0.1-3-2-3.4c-3.7-0.9-7.4-1.9-11.1-2.7c-12.7-2.7-25.1-2.1-37.4,2.6c-7.5,2.8-14.8,5.8-21.4,10.2
	c-4,2.6-4.8,6.1-2.9,10.4c0.5,1.1,0.4,2.7,0,3.9c-1.3,4.2-2.9,8.3-4.2,12.5c-0.6,2-1.8,4.2-1.4,6.1c1.2,5.9,3,11.6,4.5,17.4
	c0.2,0.7,0.1,1.6-0.1,2.4c-2.1,8.2-5.8,15.6-10,22.9c-2.4,4.3-2.4,4.7,1.8,7.5c2.6,1.7,4.1,3.6,3.3,7c-0.7,3.1,0.3,4.1,3.4,4.7
	C422,130.8,424.4,131.4,426.7,131.9z M456.9,164c7.7,0.1,14.8-2,21.1-6.3c8-5.4,15.9-11.1,23.8-16.6c4.1-2.9,8.7-5.4,8.9-11.4
	c0-0.5,0.5-1,0.7-1.5c2.2-5.1,7.1-7.4,11.2-10.4c5.2-3.9,8-9.1,9.8-15c2.7-9.3,2.3-18.7,1.1-28.2c-0.4-3.5-1.2-7.1-2.4-10.5
	c-1.7-4.9-3.5-9.8-6.1-14.2c-2.6-4.4-6-8.3-9.5-12.1c-3.7-4-8.2-7.2-13.3-9.4c-1-0.4-2.5-1-3.2-0.6c-0.8,0.5-1.2,2-1.3,3.1
	c-0.4,3.9-0.3,7.8-1,11.6c-0.9,5.6-2,11.1-3.5,16.5c-1.9,6.7-4.1,13.4-6.4,19.9c-1.2,3.4-0.9,4.7,2.4,6.3c1.3,0.6,3,1.3,3.5,2.4
	c0.9,2.1,1.6,4.6,1.6,6.9c-0.1,4.9-0.3,9.8-1.2,14.6c-1,4.6-2.5,9.3-6.7,12.3c-3.1,2.1-4.3,4.8-4.4,8.6c-0.1,2.5-1.3,5-2.3,7.3
	c-1.8,4-4.8,6.7-8.9,8.6c-5.5,2.5-10.5,6-16.6,7.3c-1.7,0.4-3.9,2.1-4.3,3.7c-1.5,5.7,0,7.2,5.8,7.2C456.1,164,456.5,164,456.9,164z
	 M524.4,206.9c0.3-0.1,0.6-0.2,0.9-0.4c1.1,2.5,2.2,5,3.6,8.2c3.7-2.9,7.6-5.4,10.8-8.6c2.1-2,3-4.8,1.3-8c-1.6-2.9-2.3-6.3-4-9.1
	c-2.8-4.4-5.8-8.8-9.3-12.7c-3.2-3.6-7.1-6.6-10.6-10c-1.4-1.4-2.1-1.4-3.6-0.1c-5.2,4.5-10.3,9.1-15.9,13.1
	c-6,4.3-12.5,8.1-18.9,11.8c-5.7,3.4-11.6,6.5-17.5,9.5c-4.4,2.2-8.9,4.1-13.3,6.3c-2.1,1.1-4.4,2.2-5.9,3.9
	c-2.5,2.9-2.9,6.7-3.3,10.4c-0.1,0.6,1,1.9,1.5,1.9c6.4,0.1,12.8,0.1,19.1,0.1c1.2-3.9,1.9-7.7,4.2-10.8c-0.3,2.4-1.1,4.7-1.6,7
	c-0.7,3.2-0.2,3.8,3,3.8c19.7,0,39.4,0,59.1,0c3.3,0,4.3-1.6,3.4-4.8C526.4,214.7,525.5,210.8,524.4,206.9z M444.3,205.9
	c0.1,0.2,0.2,0.5,0.2,0.7c0.9-0.3,1.8-0.4,2.6-0.8c1.6-0.7,3.2-1.4,4.8-2.2c3.7-1.8,7.5-3.4,11.1-5.4c5.6-3.1,11.2-6.3,16.7-9.6
	c5.6-3.4,11.3-6.9,16.6-10.8c5.3-3.9,10.1-8.5,15.4-12.5c1.9-1.4,2.4-2.8,1.3-4.7c-2.1-3.7-3.1-7.7-3.2-12c0-2.3-0.2-4.6-0.4-6.9
	c-0.3-2.8-1.4-3.2-3.6-1.5c-3.1,2.4-6,4.9-9.2,7.1c-5.1,3.6-10.3,7.1-15.6,10.4c-3.2,2-6.5,4-10,5.1c-5.5,1.8-11.4,2.4-17.2,2.2
	c-0.8,0-1.7,0.4-2.5,0.7c0.3,0.7,0.5,1.6,0.9,2.2c2.6,4.1,3.8,8.7,2.8,13.2c-1,4.6-3,9.1-4.9,13.4
	C448.4,198.5,446.3,202.2,444.3,205.9z M482,120.2c2.6,1,2.4,0.7,4.7-1.4c3.9-3.5,4.4-8.5,5.8-12.9c1.1-3.5,0.4-7.5,0.7-11.3
	c0.2-3.1-1.3-5.4-3.2-7.5c-2.1-2.4-4.7-1.6-5.6,1.4c-0.6,1.8-1.1,3.6-1.7,5.4c-1.3,4.2-2.5,8.5-3.8,12.7c-1.7,5.7-3.3,11.4-5.2,17
	c-2.6,7.4-5.4,14.6-8.1,22c3.2,0.5,10.5-3.8,11.9-7.2c1.5-3.7,2.5-7.7,3.5-11.6C481.6,124.7,481.7,122.4,482,120.2z M543.6,205.6
	c-1.1,0.6-1.5,0.7-1.8,0.9c-4,3-8.1,5.9-11.8,9.3c-1,1-0.9,3.5-0.8,5.3c0.1,0.9,1.5,2.1,2.5,2.2c2.7,0.3,5.5,0.1,8.3,0.1
	c7.7,0,6.2-0.2,5.6-6.3C545.3,213.3,544.4,209.7,543.6,205.6z"/>
<path d="M75.6,701.4c-3,4.9-5.9,9.8-9,14.6c-2.9,4.5-5.6,9.2-9,13.4c-1.1,1.4-4.2,2.1-6.2,1.8c-2.1-0.4-2.6-2.9-2.7-5.2
	c-0.1-4.5,2.2-8.1,3.9-11.8c1-2.1,2-4.1,3-6.2c-0.3-0.2-0.5-0.3-0.8-0.5c-0.6,0.7-1.2,1.4-1.7,2.1c-4.4,5.5-8.7,11.1-13.3,16.3
	c-1.1,1.3-3.7,2-5.4,1.7c-2.1-0.4-2.5-2.7-2.6-4.9c-0.1-5.7,2.8-10.4,5.3-15.2c0.9-1.8,1.9-3.6,2.8-5.4c-0.2-0.2-0.4-0.3-0.6-0.5
	c-1.7,1.1-3.4,2.3-5.1,3.4c-1.3,0.8-2.7,1.8-4.1,2.1c-1.4,0.3-3.7,0.6-4.2-0.1c-1-1.6-1.3-3.8-1.7-5.8c-0.2-1.1,0.1-2.5-0.4-3.4
	c-1.9-3.4-2.8-6.7-0.2-10c4.5-6,8.6-12.3,13.8-17.7c9.5-9.8,19.1-19.6,29.7-28.2c6.4-5.2,8.3-12.1,11.7-18.6
	c4.4-8.4,8.3-17,12.5-25.4c0.3-0.7,1-1.2,2.2-1.6c-0.1,0.9-0.1,1.8-0.4,2.6c-5.7,11.7-11.6,23.5-17.3,35.2c-0.3,0.7-0.3,1.5-0.6,2.1
	c-1.2,2.7-0.4,4.2,2.5,3.7c6.6-1.3,12.3-3.7,15.9-10.3c4.5-8.3,10-16.1,15.2-24c0.5-0.7,1.3-1.3,2.5-1.8c-0.2,0.8-0.3,1.7-0.7,2.3
	c-3.9,6-8.1,11.8-11.7,18c-4,6.9-7.6,14.1-11.1,21.3c-4.8,10-9.3,20.2-14,30.2c-4.6,9.7-9.5,19.2-14.2,28.8
	c-2.7,5.4-5.4,10.8-7.7,16.3c-0.9,2.2-0.9,4.9-0.7,7.3c0.2,2.2,3.6,2.3,5.5,0c1.6-2,3-4.1,4.4-6.3c5.1-7.8,9-16.4,15.3-23.5
	c1-1.1,1.1-3,1.5-4.6c0.4-1.8,0.7-3.7,1-5.6c0.4,0,0.8,0.1,1.1,0.1c0,1.3,0.1,2.6,0,3.8c-0.3,6.2-0.8,12.3-0.8,18.5
	c0,1.6,1.5,3.5,2.8,4.7c1.8,1.7,4.3,0.5,4.8-2c1.1-6.2,1.9-12.6,3.4-18.7c1-4,3.2-7.7,4.8-11.6c2.1-5.1,4.5-10.2,6-15.5
	c0.6-2.3-0.5-5.2-1.4-7.7c-0.7-2.2-0.6-4.1,0.9-5.6c6.9-6.7,13.8-13.3,20.8-19.9c0.5-0.5,1.3-0.7,2-1.1c0.1,0.2,0.3,0.4,0.4,0.6
	c-0.5,0.6-0.8,1.3-1.4,1.9c-6,5.9-12.1,11.9-18.2,17.7c-2.4,2.3-3.4,4.2-2.1,7.8c1.4,3.9,0.7,8.4-1.1,12.4
	c-3.2,7.4-6.6,14.7-9.5,22.2c-1.1,2.9-1,6.2-1.5,9.3c-0.6,3.1-1.4,6.2-1.9,9.4c-0.4,2.4-2.1,3.3-3.9,3.1c-1.8-0.1-4.2-0.9-5-2.2
	c-1.2-2.2-1.3-5-1.7-7.5c-0.3-2-0.2-4-0.3-6.1C76.6,701.6,76.1,701.5,75.6,701.4z M44.6,677.9c0.2,0.2,0.5,0.4,0.7,0.6
	c-0.3,0.5-0.4,1.2-0.8,1.5c-2.2,2-4.4,3.9-6.6,5.8c-4.6,4-8.9,8.3-11.3,14c-0.7,1.5,0.1,3.7,0.1,5.5c1.7-0.4,3.4-0.8,5.1-1.2
	c0.2,0,0.3-0.2,0.4-0.3c7.6-4.6,13.1-11,18.4-18.1C61,671.9,72,658.6,82.7,645.1c1.5-1.9,3-3.8,5-6.3c-1.3,0.4-1.8,0.4-2.3,0.7
	c-3.5,1.6-7.3,2.8-11,1.4c-2.1-0.8-3.1-0.3-4.5,0.9c-7.9,7.1-16,13.9-23.6,21.2c-5.1,4.9-9.8,10.4-14.3,15.9
	c-2.8,3.4-5.1,7.4-7.4,11.2c-1.3,2.1-0.6,5.1,1.2,6.3C31.2,689.4,37.4,683.1,44.6,677.9z M84.4,647c-0.2-0.1-0.4-0.2-0.6-0.4
	c-3,3.8-6.1,7.5-9.1,11.3c-12.5,15.8-25.8,31-35.2,49c-2.4,4.6-4.3,9.4-6.1,14.3c-0.4,1.1,0.6,3.1,1.5,4.3c0.3,0.4,2.3-0.1,3.3-0.7
	c1-0.5,1.8-1.6,2.5-2.5c5.6-7.2,11.3-14.3,16.8-21.6c2.8-3.8,5.6-7.7,7.7-11.9c5.3-10.7,10.1-21.6,15.1-32.4
	C81.8,653.3,83.1,650.1,84.4,647z"/>
<path d="M476.1,593.1c2,3.8,4,7.6,5.9,11.4c4.6,9.6,9.1,19.2,13.8,28.8c0.9,1.7,2.5,3.2,3.9,4.6c11.3,10.8,23.7,20.6,33.9,32.6
	c4.3,5.1,8.6,10.2,11.4,16.4c1.4,3,1.1,5.4-0.3,8.2c-0.6,1.3-0.5,2.9-0.8,4.4c-0.3,1.7-0.2,4.3-1.2,5c-1.5,0.9-4,0.8-5.7,0.2
	c-2.1-0.7-4-2.3-5.9-3.6c-0.7-0.5-1.5-1-2.7-1.1c0.5,1,1.1,2,1.5,3c2.2,5.3,4.5,10.5,6.5,15.9c0.5,1.4,0.4,3.5-0.3,4.8
	c-1.5,3-4.9,3.2-7.3,0.4c-4.1-4.7-8-9.6-12.1-14.4c-0.7-0.8-1.5-1.6-2.2-2.4c-0.2,0.1-0.5,0.3-0.7,0.4c1.2,2.6,2.1,5.3,3.6,7.7
	c1.9,3.2,2.3,6.7,2,10.2c-0.3,3.8-4,5.6-7.1,3.1c-2.2-1.8-3.9-4.2-5.4-6.6c-4.4-6.7-8.5-13.4-12.8-20.1c-0.6-0.9-1.3-1.7-2-2.5
	c-0.3,0.1-0.6,0.3-0.9,0.4c0,2.6,0.1,5.1,0,7.7c-0.1,4.4-2.2,7.3-5.8,8.1c-2.3,0.5-4.1-0.2-4.9-2.4c-0.6-1.7-1.3-3.6-1.3-5.4
	c-0.3-10.6-4.1-20.1-8.6-29.4c-1.7-3.6-2.7-7.7-4.2-11.4c-1.4-3.5-0.2-6.8,0.6-10.1c0.5-1.9,0.2-3-1.2-4.4
	c-6.3-6.1-12.5-12.3-18.7-18.6c-0.9-0.9-1.5-2-2.2-3c0.3-0.2,0.5-0.5,0.8-0.7c0.6,0.5,1.3,1,1.9,1.5c6.7,6.7,13.3,13.5,20.1,20.1
	c2.1,2.1,1.6,4.3,0.8,6.4c-1.8,4.5-0.8,8.7,0.9,12.9c2.9,6.9,6.1,13.7,8.6,20.7c1.3,3.7,1.5,7.8,2.2,11.7c0.5,2.7,0.9,5.5,1.7,8.1
	c0.8,2.7,3.7,3.1,5.3,0.9c0.8-1.1,1.6-2.5,1.7-3.8c0.3-4.7,0.4-9.4,0.3-14.1c0-2.5-0.7-5-0.9-7.4c0-0.5,0.4-1,1.3-1.5
	c0.3,1.5,0.9,2.9,0.9,4.4c0.2,3.7,1.8,6.4,3.9,9.4c5.2,7.2,9.7,14.9,14.5,22.3c1.1,1.7,2.4,3.3,3.8,4.7c2.2,2,4.6,1.4,4.7-1.5
	c0.2-2.7-0.4-5.8-1.6-8.2c-6.5-13.4-13.4-26.6-19.8-40.1c-6.3-13.2-11.5-26.9-18.2-39.9c-5.3-10.4-12-20.1-18.1-30
	c-0.7-1.2-1.7-2.2-2.3-3.4c-0.3-0.5,0-1.4,0-2.1c0.3-0.1,0.7-0.2,1-0.3c5,7.7,10,15.4,14.9,23.2c1.4,2.2,2.2,4.7,3.7,6.7
	c1,1.5,2.6,2.7,4.2,3.5c2.1,1.1,4.6,1.5,6.7,2.5c2.4,1.2,4.4,0.6,6.9-0.9c-0.9-1.8-1.8-3.7-2.6-5.6c-4.9-10.3-9.7-20.5-14.6-30.8
	c-0.6-1.3-1.5-2.6-2.1-3.9c-0.3-0.7-0.4-1.5-0.5-2.3C475.4,593.4,475.7,593.2,476.1,593.1z M482.1,637.4c0.3,0.6,0.4,1.2,0.8,1.7
	c3.5,4.4,7,8.8,10.5,13.3c8.3,10.6,17,21,24.7,32c5.5,7.8,11.7,14.3,20.1,18.6c0.9,0.4,2.5,0.4,3.2-0.2c0.7-0.6,1.3-2.3,1-3.1
	c-0.9-2.5-1.9-5.2-3.6-7.1c-4.6-4.9-9.6-9.4-14.4-14.1c-0.8-0.7-1.3-1.7-1.9-2.6c0.2-0.2,0.5-0.5,0.7-0.7c1.3,0.8,2.7,1.5,3.7,2.5
	c4.7,4.7,9.3,9.5,14,14.2c0.6,0.6,1.3,1.1,2,1.6c0.5-1,1.4-2,1.5-3c0.1-1-0.5-2.1-0.9-3.1c-3-6.7-7.9-12-12.7-17.3
	c-4.4-4.9-9.2-9.6-14.1-14.2c-6.2-5.8-12.5-11.5-18.8-17.2c-0.5-0.5-1.6-1-2.1-0.8C491.2,640.3,486.9,638.9,482.1,637.4z
	 M485.3,645.5c-0.1,0.1-0.3,0.2-0.4,0.3c0.1,0.3,0.1,0.7,0.2,1c3,7,5.9,14,9,20.9c4.7,10.4,8.7,21.2,16,30.3
	c6.7,8.3,13.3,16.6,20.1,24.8c0.6,0.7,2.2,1.5,2.7,1.2c0.9-0.5,1.8-1.9,1.7-2.8c-0.1-2.2-0.5-4.5-1.3-6.5
	c-6.1-15.2-15.6-28.3-25.6-41.1c-6.7-8.6-13.6-17-20.4-25.5C486.8,647.1,486,646.3,485.3,645.5z"/>
<path id="FACE_1_" fill="#FFFFFF" d="M243.7,79.9c-1.5-1.1-2.9-2-4.1-3c-0.4-0.4-0.8-1-0.9-1.6c-0.9-7.6-1.5-15.2,0.1-22.7
	c3.1-14.6,11.7-24.3,26-29.2c8.6-2.9,17.5-4.1,26.4-3.2c13.5,1.3,26.5,4.7,35.1,16.4c4.5,6.1,7.1,13.1,7.2,20.8
	c0.1,4.6,0.3,9.3-0.1,13.9c-0.2,2.3-1.5,4.6-2.5,6.8c-0.5,1.2-2.1,2.1-0.2,3.5c0.4-0.4,0.9-0.7,1.2-1.1c1.3-1.5,2.9-3.4,4.8-2.3
	c1.6,0.9,3.1,3,3.6,4.8c1.7,7.3-1.4,13.7-4.8,19.9c-0.6,1.1-1.3,2.2-1.9,3.3c-1.7,3.1-4.5,4.6-8,4.7c-2.1,0.1-2.8,0.8-3.4,3
	c-1.5,6.3-2.8,12.9-5.7,18.6c-4.5,8.9-12.5,14-22.4,16c-7.3,1.4-14.4,0.8-21.4-1.5c-9.6-3.2-16.4-9.4-19.5-19.1
	c-1.5-4.8-2.4-9.8-3.3-14.8c-0.3-1.6-0.9-2.2-2.3-2.1c-4.8,0.5-7.4-2.3-9.7-5.9c-3.4-5.5-5.9-11.4-6.9-17.8c-0.3-2,0.2-4.3,1-6.1
	c1.6-3.9,4.7-4.3,7.5-1.1C240.5,81.3,241.3,82.2,243.7,79.9z"/>
<path id="L1" fill="#FFFFFF" d="M289.2,599.1c-1.4-3.1-1.8-5.8-1.7-8.9c0.1-5.8-0.3-11.6-0.6-17.5c-0.3-7.7-0.9-15.3,4.7-22
	c6.6-7.9,10.7-17.2,14.1-26.9c0.8-2.4,2-4.7,2.9-7c0.3-0.9,0.3-1.9,0.4-2.8c-0.3-0.1-0.5-0.3-0.8-0.4c-0.5,0.7-1.3,1.3-1.6,2.1
	c-2.1,5.1-4.4,10.1-6.3,15.2c-2.7,7.6-7.6,14-11.9,20.7c-0.7,1.1-1.6,2.2-2.5,3.6c-1.3-1.8-2.5-3.3-3.6-5c-5-8.1-9.9-16.2-13.2-25.2
	c-1.2-3.3-2.4-6.5-3.7-9.7c-0.3-0.7-1-1.1-1.5-1.7c-0.3,0.2-0.6,0.3-0.9,0.5c0.4,1.3,0.7,2.6,1.2,3.9c2.6,6.5,4.9,13.1,8,19.3
	c3,6.1,6.6,12,10.5,17.6c2.3,3.3,1.9,6.8,1.9,10.1c0.2,9.6-0.1,19.2-0.3,28.7c0,1.6-0.6,3.2-1,5.4c-2.2-1.1-4-2.1-5.8-3
	c-12.6-6.1-22.2-15.4-29.2-27.6c-3.9-6.8-7.9-13.5-10.3-21.1c-1.5-4.7-2.7-9.5-4.1-14.3c-1.1-3.8-2.3-7.5-3.4-11.3
	c-1.5-4.9-2.7-9.8-4.4-14.6c-2.7-7.8-5.2-15.9-11.4-21.8c-2.5-2.4-6.1-3.6-9.3-5.2c-1.2-0.6-2.8-0.6-3.8-1.4c-0.7-0.6-1-2.1-0.9-3.1
	c0.6-5.4,1.3-10.8,2-16.2c1-6.6,2.1-13.2,3.5-19.9c3.8,20.7,14.6,37.3,30.3,50.4c16.3,13.5,35.8,17.8,56.5,15.9
	c39.9-3.6,61.6-27.9,72.3-65.2c0.6,2.2,1.1,3.8,1.4,5.4c1.1,5.8,2.2,11.6,3.1,17.5c0.6,3.9,0.8,7.9,1.3,11.8c0.4,3.1-1.8,4.1-4,4.6
	c-9.5,2.2-14.3,9.1-18.2,17.2c-3.5,7.3-5.1,15.2-6.9,23c-1.2,4.9-2.9,9.7-4.5,14.5c-2.1,6.4-3.8,12.9-6.6,19
	c-6,12.9-12.5,25.6-24,34.6c-4.6,3.6-10,6.1-15,9.1C291.3,598,290.4,598.5,289.2,599.1z"/>
<path id="C4_2_" fill="#FFFFFF" d="M173.2,202.5c4.2-4.1,9.1-6.3,14.6-6.6c7-0.5,13-3.2,19-6.3c1.1-0.5,2.2-1,3.1-1.7
	c4.6-3.5,8.4-0.1,12.5,1.3c9.4,3.3,18.7,7,28.3,9.6c8.6,2.3,17.6,3.6,26.5,4.7c7,0.8,14.1,1.2,21.1,0.7c8.6-0.7,17.3-2.2,25.8-4
	c13.7-2.8,26.7-7.6,39.4-13.3c1.3-0.6,3.3-0.2,4.7,0.3c6.1,2.4,12,5.3,18.1,7.7c2.6,1,5.7,0.8,8.4,1.6c3.2,1,6.4,2.4,9.4,3.9
	c2.7,1.3,2.7,2.1,0.5,4c-5.3,4.5-10.4,9.4-16.3,13.2c-9.9,6.5-20.1,12.7-30.6,18.4c-6.6,3.6-14,5.3-21.6,5.4
	c-28.7,0.2-57.5,0.6-86.2,0.5c-13.4,0-26.1-3.5-37.4-11c-5.4-3.6-11.4-6.4-16.7-10.1c-6.2-4.4-11.9-9.4-17.9-14.1
	C176.4,205.2,174.9,203.9,173.2,202.5z"/>
<path id="L2-L" fill="#FFFFFF" d="M371.9,481.2c0.3,7.2,0.5,14.1,0.7,20.9c0.4,14.5,1.1,29,1,43.5c-0.1,9.8-0.7,19.6-3.9,29.3
	c-5.3,15.8-10.8,31.5-18.6,46.3c-5.2,9.8-11.1,19.3-17.7,28.1c-5.5,7.3-13.4,11.7-23.1,11.6c-6.2-0.1-11.3-3.1-16.3-6.3
	c-0.5-0.3-0.6-1.4-0.7-2.2c-0.4-9.4-0.6-18.8-1.2-28.2c-0.4-6.4-1.4-12.7-2.3-19c-0.4-2.7,0.6-4,2.8-5.3c6.3-3.7,12.8-7.2,18.4-11.8
	c8-6.5,13-15.6,18-24.6c5.2-9.5,8.6-19.7,11.4-30.1c1.9-7.1,4.5-14,6.2-21.2c1.5-6.5,3.9-12.6,7.1-18.4
	C357.5,486.9,363.4,482.9,371.9,481.2z"/>
<path id="L2-R" fill="#FFFFFF" d="M200.4,481.2c5.9,1.3,11.1,3,14.5,7.7c5.1,6.9,8,14.9,10.3,23.1c1.8,6.5,3.9,12.9,5.8,19.4
	c1.5,5.1,2.5,10.3,4.3,15.3c1.8,5.2,3.9,10.3,6.5,15.1c3.3,6,7.2,11.6,11,17.3c5.7,8.3,13.6,13.9,22.4,18.5c1.8,0.9,3.6,1.7,5.4,2.7
	c3.4,1.9,1.6,4.9,1.3,7.4c-0.4,3.5-1.6,7-1.8,10.6c-0.6,11.4-0.9,22.8-1.3,34.2c0,0.8-0.3,2-0.8,2.3c-5.3,3.2-10.7,6.3-17.2,6.1
	c-8.5-0.3-15.6-4-20.9-10.4c-4.5-5.5-8.6-11.5-12.2-17.7c-4.8-8-9.3-16.1-13.2-24.5c-3.4-7.3-5.8-15.1-8.4-22.8
	c-2-5.7-3.4-11.5-5.4-17.1c-2.4-6.6-2.4-13.4-2.4-20.2c0-13.9-0.1-27.7,0.3-41.6c0.2-7.1,1.2-14.1,1.8-21.2
	C200.5,484.2,200.4,483,200.4,481.2z"/>
<path id="L3-L" fill="#FFFFFF" d="M295.6,780.1c-0.7-3.7-1.7-7.4-2-11.2c-1-12.6-1.9-25.1-2.7-37.7c-0.6-9.6-0.3-19.3-1.2-28.9
	c-1-10.7,0.7-21.1,2-31.6c0.4-3.2,0.5-6.5,0.8-9.7c0.1-1.3,0.3-2.6,0.5-4.1c3.2,1.7,5.9,3.5,8.8,4.4c10.1,3.2,19.3,1.4,27.8-5.3
	c6.6-5.2,10.7-12.1,14.9-19c7.2-11.6,13.4-23.6,18.2-36.5c2.7-7.3,5.5-14.6,8.8-21.7c-0.4,3.8-0.6,7.6-1.2,11.4
	c-1.7,10.6-3.4,21.2-5.3,31.7c-1.1,5.9-2.4,11.8-3.7,17.6c-1.2,5.3-2.7,10.5-4,15.8c-1.3,5.2-2.5,10.4-3.6,15.7
	c-1.5,7.3-3,14.7-4.3,22c-1,5.5-1.6,11-2.5,16.5c-0.9,5.2-1.9,10.4-2.9,15.5c-0.1,0.5-0.3,1.1-0.3,1.6c-0.4,7.6-0.7,15.2-1.2,22.8
	c-0.1,1.2-0.4,2.7-1.2,3.5c-12.2,12.7-27.5,20.5-43.6,26.8c-0.4,0.2-0.9,0.3-1.3,0.4C296.3,780.2,296.1,780.2,295.6,780.1z"/>
<path id="L3-R" fill="#FFFFFF" d="M201.3,577.2c3.2,15.1,9.2,29.2,16.5,42.7c4.8,8.9,9.8,17.7,15.4,26.1
	c5.7,8.5,13.2,15.2,23.9,16.6c6.2,0.9,12.3,0.1,17.8-3.5c1-0.7,2.3-1.1,4.1-1.9c0.3,2.2,0.6,3.9,0.8,5.7c0.7,6.1,1.5,12.2,2.1,18.3
	c0.3,3.4,0.3,6.9,0.3,10.3c0,12,0,24-0.3,36c-0.2,7.1-1.2,14.2-1.8,21.2c-0.2,2.3,0,4.7-0.3,7c-0.8,7.3-1.6,14.5-2.5,21.8
	c-0.1,1-0.7,1.9-1.1,3.3c-2.7-1.2-5.3-2.3-7.9-3.4c-12.5-5.2-24.2-11.6-34-21c-1.1-1.1-2.4-2.1-3.3-3.3c-0.7-1-1.3-2.2-1.4-3.4
	c-0.5-7.5-0.5-15-1.3-22.4c-0.9-8-2.7-15.9-4.1-23.9c-0.9-5.2-1.5-10.4-2.5-15.6c-1.3-6.6-2.8-13.1-4.2-19.6
	c-1.2-5.5-2.3-11-3.6-16.4c-1.3-5.3-2.9-10.6-4.2-15.9c-1-4.3-1.7-8.7-2.5-13c-0.9-4.5-2-8.9-2.9-13.4c-0.5-2.4-1-4.9-1.3-7.3
	c-0.5-3.9-0.9-7.9-1.4-11.8c-0.4-3.3-0.8-6.6-1.1-9.9c-0.1-1,0.1-2.1,0.1-3.2C200.9,577.2,201.1,577.2,201.3,577.2z"/>
<path id="T12" fill="#FFFFFF" d="M212.5,415.3c2.3,3.2,4.6,6.4,7,9.5c8.5,11.2,18.6,20.6,30.3,28.2c7.5,4.8,15.6,8.8,24.3,10.1
	c8.8,1.3,18,1.7,26.8-0.8c16.8-4.8,30.9-13.8,42.3-27.1c5.1-6,10-12.1,15-18.1c0.4-0.5,1-1,2-1.8c1.2,7.8,4.9,14.6,3.3,22.4
	c-2.7,12.7-7.2,24.5-14.9,35.2c-9.3,12.9-21.3,21.9-36,27.4c-11.1,4.2-22.8,4.1-34.5,3.7c-7.7-0.3-14.9-2.6-22.1-5.3
	c-9.4-3.6-17.8-8.7-24.4-16.2c-7.8-8.7-14.6-18-18.9-29.1c-2.3-5.8-2.5-12-4.4-17.8c-1.6-4.9,1.3-8.7,1.6-13
	c0.2-2.4,1.1-4.7,1.7-7.1C211.9,415.4,212.2,415.4,212.5,415.3z"/>
<path id="T2" fill="#FFFFFF" d="M168.6,334.9c-2.2-3.2-4.5-5.6-5.7-8.5c-2.2-5.2-4.2-10.6-5.5-16.1c-0.5-2.1,1.1-4.8,2-7.2
	c3.3-8.2,6.5-16.5,10.1-24.6c3.9-8.8,8.1-17.5,12.6-26c4.1-7.8,8.8-15.3,13.3-22.9c1.7-2.8,2.2-2.7,5.2-0.9
	c4.5,2.7,9.1,5.5,13.8,7.9c10.4,5.3,21.7,7.2,33.3,7.2c25.7,0,51.4,0,77.1,0c9.7,0,19.4-0.9,28.3-5.1c6.3-3,12.3-6.8,18.3-10.2
	c3.4-1.9,3.4-2,5.3,1.3c7.4,13.3,15.3,26.3,22,39.9c5.4,10.9,9.2,22.6,14.1,33.7c2.1,4.8,1.2,9.1,0,13.7c-1.7,6.6-4.9,12.4-9.7,18
	c-1.3-3.3-2.4-6.3-3.5-9.3c-3.7-10.2-7.4-20.4-11.1-30.7c-1.2-3.3-2.5-6.6-3.3-10c-0.4-1.9,0-4,0.2-5.9c0.2-1.8,0.9-3.6,1-5.4
	c0.2-3.5-1.1-4.8-4.7-5.9c-6.9-2.2-13.7-4.8-20.7-7c-6.3-1.9-12.6-3.7-19-5.1c-6.7-1.4-13.5-2.6-20.3-3.2
	c-6.7-0.6-13.4-0.3-20.1-0.5c-7.3-0.2-14.6-0.8-21.9-0.7c-9.5,0.1-19.2,0-28.6,1.2c-11.2,1.4-22.3,3.6-33.2,6.2
	c-8.1,1.9-15.9,5.2-23.9,7.8c-2.3,0.7-4.6,1.3-6.9,2c-1.9,0.5-2.8,1.6-2.2,3.7c0.5,1.9,0.6,4,1.4,5.7c1.9,3.8,0.7,7.1-0.6,10.7
	c-1.9,5-3.6,10.1-5.4,15.1c-1.4,3.9-3,7.8-4.4,11.7C173.6,321.6,171.3,327.7,168.6,334.9z"/>
<path id="L4-R" fill="#FFFFFF" d="M230.6,756.7c4.4,3.5,8.2,6.7,12.2,9.6c9.4,6.9,20.1,11.4,30.8,15.9c2.4,1,3.2,2.2,3,4.7
	c-0.2,3.5-0.3,7.1,0,10.6c0.7,8.6,1.2,17.2,2.4,25.7c1.9,13.6,1.2,27.3,0.7,40.9c-0.4,10.4-2,20.7-3,31c-0.2,2.1-0.2,4.3-0.2,6.4
	c-0.3,10.5-1.1,21-0.8,31.4c0.2,8.7,1.8,17.3,2.7,25.9c0.8,7.4,3.7,14.6,2.7,22.2c-0.3,2.7-1.2,5.4-1.2,8.1c0,2.8,0.6,5.6,1,8.5
	c0.1,1,0.1,2,0.1,3c-6.8,1.6-11.8-2.1-12.4-8.7c-0.7-7.7-1.4-15.5-2.3-23.2c-1-8.8-2.2-17.6-3.4-26.4c-1.1-7.9-2.1-15.7-3.4-23.5
	c-1.4-8.8-3-17.6-4.4-26.5c-1.2-7.7-2.1-15.5-3.4-23.3c-1.2-7.3-2.7-14.5-4-21.8c-0.9-5.3-1.6-10.6-2.6-15.8
	c-1.1-5.7-2.4-11.3-3.7-17c-1-4.4-2-8.8-2.9-13.2c-1.5-7-2.9-14-4.2-21.1c-0.9-4.5-1.6-9.1-2.4-13.6c-0.4-2.5-0.9-4.9-1.3-7.4
	C230.5,758.6,230.6,757.9,230.6,756.7z"/>
<path id="L4-L" fill="#FFFFFF" d="M290.9,1001.6c0.5-3.5,1.2-6.4,1.3-9.3c0.1-2.8-0.7-5.6-0.8-8.5c-0.2-4-0.3-8,0-12
	c0.3-3.9,1.4-7.8,1.9-11.7c0.9-7.5,1.9-15,2.3-22.6c0.6-9.5,1-19.1,0.7-28.6c-0.2-7.6-1.4-15.3-2.1-22.9c-1.1-13.1-2.6-26.2-3-39.4
	c-0.2-7.8,1.2-15.7,1.9-23.5c0.4-4.6,1-9.2,1.3-13.8c0.5-8.1,0.7-16.3,1.2-24.4c0.1-0.9,1.2-2,2.1-2.5c5.5-2.6,11.2-4.9,16.7-7.5
	c8.8-4.2,17-9.3,24.1-16.1c0.4-0.4,0.8-0.7,1.3-1.1c0.2-0.1,0.5-0.1,1.3-0.3c-0.5,3.2-1,6.1-1.5,9c-1,5.2-2,10.4-3,15.5
	c-1.4,6.9-2.8,13.8-4.2,20.6c-1.3,6.3-2.4,12.6-3.7,18.8c-1.3,6.2-2.8,12.3-4,18.4c-1,5-1.8,10-2.6,15.1
	c-1.6,10.6-3.2,21.2-4.7,31.9c-1.4,9.8-2.8,19.6-4.4,29.3c-1.3,8.5-2.8,17-4.1,25.5c-0.5,2.9-0.8,5.8-1.2,8.7
	c-1.2,9.6-2.3,19.3-3.4,29c-0.5,4.1-0.6,8.1-1.1,12.2c-0.7,5.6-2.9,7.8-8.2,9C294,1000.7,292.7,1001.1,290.9,1001.6z"/>
<path id="L5-L" fill="#FFFFFF" d="M339.1,1037.7c1.5,1.1,2.7,2.1,3.9,3c0.5,0.4,1.2,0.6,1.6,1c0.9,1.1,1.6,2.4,2.4,3.6
	c-1.7,0.8-3.5,2.2-5.1,2.1c-3.3-0.2-6.7-0.8-8.5-4.4c-0.2-0.4-1.3-0.5-2-0.6c-4.7-0.7-8.8-2.5-12.3-5.8c-3.7-3.6-7.5-7-11.1-10.7
	c-1.4-1.5-2.4-3.4-3.2-5.4c-2.5-6.1-6.1-11.5-11.1-15.9c-0.2-0.2-0.2-0.5-0.6-1.2c1.2-0.3,2.3-0.9,3.3-0.9c4.7,0.2,7.1-2.9,7.9-6.6
	c1.3-5.8,1.8-11.8,2.5-17.8c1-7.3,1.9-14.6,2.9-22c0.5-3.9,0.8-7.9,1.4-11.8c1-6.6,2.1-13.2,3.1-19.8c0.5-3,0.8-6,1.3-9.1
	c1.1-7.1,2.2-14.3,3.2-21.4c0.9-6.3,1.6-12.7,2.6-19c0.9-5.6,2-11.3,3-16.9c0.9-5.3,1.5-10.6,2.5-15.9c1.2-6.4,2.7-12.8,4.1-19.2
	c0.9-4.2,1.8-8.5,2.6-12.8c1.4-6.6,2.8-13.2,4.1-19.8c1.3-6.9,2.5-13.8,3.8-20.8c0.5-2.4,1-4.8,2-7.3c0.4,2.8,0.8,5.5,1.3,8.3
	c1.4,8.6,2.8,17.1,4.2,25.7c0.5,3.1,1,6.2,1.3,9.3c0.7,6.2,1.5,12.5,1.9,18.7c0.2,3.3-0.4,6.6-0.6,10c-0.4,7.6-0.4,15.3-1.4,22.8
	c-0.8,5.4-2.8,10.7-4.7,15.8c-3.1,8.4-6.9,16.5-9.7,24.9c-2.3,6.7-3.7,13.7-5.3,20.6c-1.5,6.4-3,12.8-4.2,19.2
	c-1,5.2-1.8,10.4-2.4,15.6c-0.6,5.6-1.1,11.3-1,16.9c0.1,8,0.6,15.9,1,23.9c0,0.5,0.1,1.2,0.4,1.6c5,8,7.7,17.4,14.2,24.5
	c3.7,4.1,7.7,8.1,11.8,11.9c2.3,2.1,5,3.7,7.3,5.8c0.7,0.6,0.5,2.1,0.7,3.1c-0.9-0.3-1.9-0.5-2.6-1c-2.2-1.7-4.4-3.5-6.6-5.3
	c-0.3,0.2-0.6,0.3-0.9,0.5c0.3,0.9,0.4,2,1,2.6c1.1,1.1,2.7,1.7,3.8,2.8c0.8,0.8,1,2.1,1.6,3.4c-4.9,0.3-6.2-3.9-9.4-5.2
	C343.2,1038.3,342,1036.2,339.1,1037.7z"/>
<path id="L5-R" fill="#FFFFFF" d="M231.5,1036.9c-5.1,0.9-7.5,6.7-12.7,7.6c-1.6-2.4,0.6-3.3,1.9-4.4c1.4-1.3,2.9-2.5,4.4-3.7
	c-0.1-0.3-0.1-0.6-0.2-0.9c-0.8,0.1-1.9-0.1-2.4,0.3c-2.2,1.7-4.2,3.7-6.4,5.5c-0.4,0.3-1.1,0.5-1.5,0.4c-0.4-0.1-0.8-1-0.7-1.3
	c0.5-1.1,1-2.3,1.9-3.1c4.9-4.5,10.3-8.6,14.8-13.5c6.4-6.9,11.2-14.8,15-23.6c2.8-6.6,2.7-13,3.1-19.7c0.2-2.8,0.9-5.7,0.8-8.5
	c-0.5-8.8-0.9-17.7-2.2-26.4c-1.7-10.8-3.9-21.6-6.6-32.2c-3.2-12.6-7.5-25-12.9-36.9c-5.2-11.2-7.7-23.2-7.2-35.7
	c0.3-8.2-0.2-16.4,0.3-24.6c0.5-7.3,1.9-14.5,3-21.7c0.8-5,1.7-10,2.5-15c0.8-5.1,1.5-10.1,2.9-15.3c0.3,1.5,0.6,3,0.9,4.5
	c0.6,2.9,1.2,5.8,1.7,8.7c1,5.4,2,10.8,3.1,16.3c0.8,4.2,1.6,8.5,2.5,12.7c1.3,6,2.7,12,4,18c1,4.5,1.8,9,2.6,13.5
	c1,5.4,2.1,10.9,3,16.3c0.9,5.3,1.7,10.6,2.5,15.9c1.1,7,2.2,14,3.2,21c0.9,5.7,1.6,11.5,2.6,17.3c0.9,5.5,1.9,10.9,2.8,16.4
	c0.5,3,1,6,1.4,9c1.2,9.3,2.5,18.7,3.6,28c0.9,7.9,1.5,15.8,2.4,23.7c0.4,3.6,1.1,7.3,2,10.8c0.9,3.6,3.7,5.7,7.3,6
	c0.9,0.1,1.9,0.6,2.8,0.9c-0.5,0.9-0.9,1.9-1.5,2.6c-4.1,5-7.3,10.5-9.7,16.5c-0.7,1.7-2.1,3.1-3.3,4.4c-3.4,3.4-6.8,6.6-10.3,9.9
	c-3.6,3.4-8,4.7-12.7,5.7c-0.9,0.2-2,1-2.5,1.8c-1.5,2.7-9.1,4.2-11.4,2c-1.5-1.4-1.6-2.5,0.3-3.7c2-1.4,3.9-3.1,5.8-4.6
	C232,1037.6,231.8,1037.3,231.5,1036.9z"/>
<path id="C6-R" fill="#FFFFFF" d="M53.3,498.8c-1.6,0.8-3.2,1.6-4.6,2.5c-5.1,3.2-10.1,6.7-15.4,9.7c-1.6,0.9-4,0.7-5.9,0.3
	c-2.6-0.6-2.8-3.5-0.7-5.3c4.4-3.7,9.3-7.1,13.2-11.4c6.2-7,11.9-14.5,17.4-22c2.8-3.7,6.1-6,10.6-7c3.9-0.8,4.6-1.7,5.5-5.6
	c1.9-7.4,4.1-14.6,6-22c1.4-5.4,2.6-10.9,4-16.3c1.7-6.5,3.3-12.9,5.2-19.3c1.4-4.8,3.1-9.6,4.8-14.3c0.4-1.1,1.2-2.2,2.1-2.9
	c12.2-8.9,23.7-18.5,33.1-30.5c4.7-6,9.3-12,13.7-18.2c2.2-3.1,3.9-6.5,5.8-9.8c0.4-0.6,0.9-1.1,1.9-1.4c-1.2,4.8-2.2,9.7-3.5,14.5
	c-1.2,4.6-2.6,9.1-4.1,13.6c-1.8,5.4-3.8,10.7-5.8,16c-1.7,4.4-3.4,8.8-5.2,13.1c-2,4.9-3.9,9.7-6,14.5c-3.1,7.1-6.4,14.1-9.6,21.2
	c-7.6,16.5-15.2,33-25.9,47.9c-7,9.8-14.3,19.4-21.2,29.3c-7,10.2-13.4,20.7-20.3,31c-2.9,4.4-6.2,8.5-9.4,12.7
	c-1.5,1.9-2.8,4-4.7,5.4c-1.1,0.9-3.8,1.3-4.6,0.6c-1-0.9-1.4-3.4-0.8-4.7c2.2-4.8,4.6-9.5,7.4-14c3.7-6.1,7-12.4,8.9-19.3
	c0.2-0.6,0.8-1.2,1.3-1.6c2.5-2,5-3.9,7.4-5.8C53.8,499.7,53.6,499.3,53.3,498.8z"/>
<path id="C6-L" fill="#FFFFFF" d="M517.8,500c0.5,0.6,1,1.2,1.6,1.6c1.9,1.3,4,2.2,5.7,3.7c0.9,0.8,1.3,2.3,1.7,3.5
	c2.4,7.8,6.8,14.5,10.9,21.4c2.3,3.8,3.9,7.9,5.6,12c0.4,0.9-0.1,3-0.8,3.3c-1.1,0.6-2.8,0.5-4.1,0c-3.5-1.4-5-4.7-6.9-7.6
	c-7.6-11.5-15-23.2-22.8-34.6c-5.2-7.7-11.1-14.9-16.3-22.5c-7-10.2-14.1-20.4-20.4-31.1c-5.5-9.2-10.4-18.9-14.8-28.6
	c-6.2-13.6-11.8-27.5-17.5-41.3c-2.9-7.1-5.9-14.1-8.3-21.4c-3.5-10.5-6.4-21.2-9.6-31.8c0.4-0.2,0.7-0.4,1.1-0.6
	c0.6,0.8,1.4,1.6,1.9,2.4c3.8,6,7.3,12.2,11.4,17.9c10.2,14.1,22.3,26.3,36.7,36.1c5.6,3.8,7.5,9.4,9.2,15.2
	c3.2,11.1,6,22.4,8.9,33.6c2.7,10.3,5.2,20.7,7.7,31.1c0.5,2.1,1.9,3.2,3.6,3.4c6.9,0.7,10.8,5.1,14.6,10.4
	c7.2,10,14.5,20.1,25.1,27c1.4,0.9,2.6,2.1,3.6,3.4c0.7,0.8,1.4,2.3,1.1,2.9c-0.5,1-1.8,2-2.9,2.3c-3.9,1-6.9-1.3-9.9-3.2
	c-4.3-2.7-8.5-5.6-12.8-8.3c-0.8-0.5-1.9-0.7-2.8-1C518.2,499.4,518,499.7,517.8,500z"/>
<path id="C5-L" fill="#FFFFFF" d="M473.7,380.2c-2.5-1.9-5.1-3.6-7.5-5.6c-10.2-8.4-19.3-18-27.4-28.5c-6.8-8.8-12.4-18.3-17-28.3
	c-4.3-9.5-8.4-19-12.3-28.7c-6.9-16.8-14.2-33.4-23.8-48.8c-2.7-4.4-5.1-9-7.8-13.3c-0.8-1.4-0.5-1.7,0.6-2.6
	c7.6-5.8,15.2-11.7,22.6-17.6c3.4-2.7,3.8-3.1,6.4,0.2c3.4,4.3,6.7,8.9,8.8,14c2.8,7.1,4.8,14.6,6.4,22c2.1,9.6,5.8,18.4,10.5,27
	c3.7,6.9,6.4,14.6,8.5,22.2c2.6,9.4,3.9,19,6,28.6c1.6,7.6,1.6,15.6,5.5,22.6c2.6,4.7,5.9,8.9,8.6,13.5c4.3,7.2,8.3,14.6,12.4,21.9
	c0.2,0.3,0.1,0.7,0.2,1.1C474,379.8,473.9,380,473.7,380.2z"/>
<path id="C5-R" fill="#FFFFFF" d="M96.2,381.2c1.8-3.5,3-6.3,4.6-8.9c5.4-8.7,11.1-17.2,16.3-26.1c3-5.2,4.9-10.8,5.4-17
	c0.4-5,1.9-9.8,2.8-14.8c0.8-4.2,1.5-8.5,2.5-12.7c1.5-6.1,3.1-12.2,5-18.2c2.9-9.2,7.9-17.4,12.4-25.8c1.4-2.7,1.8-5.9,2.5-8.9
	c1.6-7,2.7-14.2,4.9-21.1c1.6-5,4.5-9.7,7-14.4c1.5-2.7,3.2-5.2,5.1-7.7c1.1-1.5,2.3-1.8,4.1-0.3c7.8,6.3,15.8,12.5,23.8,18.6
	c1.7,1.3,2.1,2.3,0.9,4.2c-6.3,10.7-12.9,21.2-18.5,32.2c-4.5,8.8-7.8,18.3-11.6,27.5c-1.9,4.5-3.8,9-5.8,13.5
	c-2.8,6.4-5.5,12.8-8.7,19c-5.3,10.1-11,19.9-18.7,28.4c-6,6.7-11.9,13.7-18.2,20.1c-4.1,4.2-9,7.6-13.5,11.3
	C98.3,380.6,97.6,380.6,96.2,381.2z"/>
<path id="T4" fill="#FFFFFF" d="M187.5,278.2c3-0.9,5.2-1.7,7.4-2c8.7-1.3,17.3-3,26.1-3.6c12.6-0.8,25.2-0.9,37.8-1.2
	c14.4-0.3,28.8-0.7,43.2-0.7c14.9,0,29.9,0,44.8,1.1c10.7,0.8,21.3,3.2,32,4.9c0.8,0.1,1.7,0,2.5,0.4c0.8,0.3,1.9,1.1,1.9,1.6
	c0,0.9-0.7,2.2-1.4,2.4c-7,2.5-14,4.9-21.2,7c-5.7,1.7-11.6,3-17.4,4.2c-5.3,1.1-10.6,1.9-15.9,2.5c-10.1,1-20.3,2.1-30.4,2.6
	c-7.4,0.4-14.9,0-22.3-0.2c-4.5-0.1-8.9,0-13.4-0.5c-7.4-0.8-14.8-1.8-22.2-2.9c-6.5-1-13-2.1-19.4-3.5c-9.9-2.1-19.5-5.2-28.8-9.2
	C189.7,280.8,189,279.7,187.5,278.2z"/>
<path id="C3_1_" fill="#FFFFFF" d="M214.6,184.2c3.7-1.5,7.4-2.7,10.9-4.5c8.9-4.5,19.2-6.6,25.8-14.9c1.3-1.6,2.7-3.2,3.8-5
	c1-1.7,1.7-1.8,3.1-0.5c3.8,3.4,8.1,5.9,13.1,7.3c6.4,1.9,12.8,2.5,19.3,1.9c8.5-0.8,16.6-2.7,22.9-9.2c1-1.1,2.1-1.8,3,0
	c4.2,8.3,11.5,12.8,19.9,16c6.4,2.4,12.6,5.4,18.8,8.1c0.6,0.3,1.1,0.8,2.1,1.6c-17.5,7.9-35.2,13.4-53.8,16
	c-31.5,4.4-60.7-3.4-89.1-15.8C214.7,184.9,214.7,184.5,214.6,184.2z"/>
<path id="T7" fill="#FFFFFF" d="M375,308.1c-0.6,3-0.9,5.3-1.4,7.5c-1,4.6-2.1,9.2-3.3,13.7c-0.2,0.9-0.8,1.9-1.5,2.4
	c-11,8.3-22.6,15.6-35.7,20.1c-9.2,3.2-18.5,6.5-28.1,8.5c-7.7,1.6-15.8,1.5-23.7,1.4c-6-0.1-12.1-1.2-18.1-2.2
	c-4.7-0.9-9.2-2.4-13.8-3.7c-10.5-3-20.3-7.6-29.6-13c-5.9-3.4-11.4-7.5-16.9-11.5c-1.1-0.8-1.6-2.9-2-4.4c-1-4.3-1.7-8.7-2.6-13
	c-0.4-1.8-0.8-3.5-0.6-5.5c3.8,2.8,7.4,5.8,11.3,8.5c9.2,6.5,19.4,11.3,29.6,15.9c7.5,3.4,15.3,5.6,23.2,7.6
	c0.3,0.1,0.6,0.1,0.8,0.1c11.9,1.4,23.9,1.6,35.8,1.1c13.4-0.7,26.1-4.4,38.3-10.5c8.7-4.4,17.7-8.2,25.8-13.8
	c3.2-2.3,6.3-4.7,9.5-7C372.8,309.7,373.6,309.1,375,308.1z"/>
<path id="T10" fill="#FFFFFF" d="M212.1,376c0.9,0.6,1.6,1,2.1,1.5c8.8,8.7,18.4,16.4,28.8,23.1c7.3,4.6,15.2,7.6,23.6,9.7
	c9.8,2.5,19.7,2.4,29.5,1.7c5.6-0.4,11.1-2.7,16.7-4c7.1-1.8,13.5-5.2,19.3-9.5c8.8-6.5,17-13.7,25.5-20.6c0.3-0.3,0.7-0.5,1.6-1.1
	c0,1.7,0,3,0,4.3c-0.1,3.3-0.3,6.7-0.3,10c0,2.1-0.6,3.5-2.2,5c-6.1,5.5-11.8,11.4-18,16.8c-11.7,10.2-24.3,19.1-38.8,24.8
	c-3.4,1.3-7.3,2.3-11,2.2c-9.3-0.4-18.4-1.8-26.8-6.6c-9.4-5.4-18.5-11-26.8-18c-5.9-5-11.1-10.7-17-15.7c-4.3-3.6-6.3-7.5-5.6-13.2
	C213.2,383.2,212.4,379.9,212.1,376z"/>
<path id="T8" fill="#FFFFFF" d="M368.6,336.3c-1.3,5.3-2.5,10.5-3.8,15.6c-0.1,0.4-0.4,0.9-0.7,1.1c-7.4,5.2-14.5,10.9-22.3,15.6
	c-9.6,5.9-19.7,10.9-30.8,13.7c-5.6,1.4-11.2,2.1-17,2.1c-2.2,0-4.3,0.5-6.5,0.8c-0.5,0.1-0.9,0.1-1.4,0c-4.7-0.3-9.4-0.6-14.1-1
	c-9.3-0.8-18-3.5-26.5-7.4c-9.1-4.1-17.6-9.1-25.6-15c-4-2.9-8-5.7-11.7-8.9c-1.3-1.2-2-3.4-2.5-5.2c-1.1-4-2-8.1-3.1-12.6
	c1,0.3,1.7,0.2,2.1,0.6c10.4,8.3,22.1,14.4,34.4,19.3c5.3,2.1,11,3.4,16.6,4.8c5.8,1.5,11.5,3.1,17.4,3.9c5.1,0.7,10.4,0.8,15.6,0.5
	c7.1-0.4,14.3-0.8,21.1-2.5c9.5-2.4,18.8-5.6,27.9-9.1c10.2-3.8,19.4-9.6,28.3-15.9c0.4-0.3,0.8-0.5,1.2-0.6
	C367.7,336,368,336.2,368.6,336.3z"/>
<path id="T9" fill="#FFFFFF" d="M208.5,355.9c4.7,3.5,8.9,6.8,13.1,9.8c10.1,7.3,21.2,13,33,17.1c7.3,2.6,15,3.7,22.8,3.6
	c6.7-0.1,13.5,0.2,20.2-0.1c9.1-0.3,17.7-2.7,26.1-6.1c13.5-5.5,25.4-13.6,37-22.2c0.4-0.3,0.9-0.6,1.4-0.8c0.3-0.1,0.7,0,1.2,0
	c-1.1,4.8-2,9.4-3.3,14c-0.3,1.1-1.6,1.9-2.4,2.9c-7,7.8-15.6,13.7-23.8,19.9c-5.9,4.4-12,8.5-19.1,10.7c-5,1.5-9.9,3.4-15,4
	c-7.7,0.9-15.5,1.3-23.2,0.9c-6.7-0.4-13.3-2.3-19.7-4.7c-11.6-4.4-21-12-30.5-19.7c-5.1-4.2-9.6-9-14.4-13.6
	c-0.6-0.5-1-1.4-1.2-2.1c-0.8-3.6-1.6-7.1-2.3-10.7C208.4,358.1,208.5,357.4,208.5,355.9z"/>
<path id="T11" fill="#FFFFFF" d="M213.4,398.5c0.5,0.2,1.2,0.4,1.7,0.8c3.9,3.7,7.6,7.7,11.7,11.2c8.3,7.1,16.3,14.5,26,19.6
	c6.1,3.2,12.2,6.5,18.5,9.2c3,1.3,6.6,1.6,9.9,1.9c3.3,0.3,6.7,0.1,10.1,0c7.1-0.2,13.4-2.8,19.5-6c10.3-5.4,19.8-12.3,28.6-19.9
	c4.1-3.5,7.9-7.3,11.8-11c1.9-1.7,3.7-3.5,5.6-5.1c1.1-1,2-0.6,2,0.8c0.2,3.7,0.4,7.4,0.4,11.1c0,0.5-0.5,1.1-0.9,1.6
	c-7.3,10.5-15.5,20.3-25,28.9c-8.1,7.4-17.5,12.6-27.8,16.7c-10.4,4.1-21,3.1-31.5,2.6c-4.5-0.2-8.9-2.8-13.2-4.8
	c-16.7-7.4-29.4-19.7-40.4-33.9c-2.8-3.6-5.4-7.3-7.9-11c-0.4-0.6-0.6-1.6-0.6-2.3C212.4,405.6,212.9,402.2,213.4,398.5z"/>
<path id="T5" fill="#FFFFFF" d="M382.1,284.2c-1.2,2.4-1.7,5-3.3,6.1c-5.5,3.7-11.4,6.9-17.1,10.4c-8.8,5.3-18.2,9.1-27.9,12
	c-8.7,2.6-17.6,4.5-26.5,6.6c-1.7,0.4-3.5,0.3-5.3,0.4c-6.8,0.3-13.7,1.1-20.5,0.8c-7.8-0.3-15.8-0.8-23.4-2.3
	c-8.5-1.7-16.8-4.6-25.1-7.2c-14.1-4.3-26.5-12.1-39-19.8c-2.6-1.6-3.1-4.2-3.5-6.8C254.1,305.1,317.5,304.9,382.1,284.2z"/>
<path id="T1-L" fill="#FFFFFF" d="M470.8,478.4c-9.6-13.8-18.9-26.6-27.4-39.8c-7.1-11-13.8-22.2-17.5-34.9
	c-1.9-6.4-3.2-12.9-5.1-19.3c-1.6-5.2-3.6-10.2-5.5-15.3c-1.7-4.6-3.7-9.2-5.4-13.9c-1.7-4.7-3.3-9.4-4.6-14.2
	c-0.4-1.4-0.4-3.6,0.4-4.7c4.6-6.4,8.5-13.2,10-21.1c0-0.2,0.2-0.3,0.9-1.1c0.7,1.8,1.4,3.3,1.8,4.8c2.8,10.7,5,21.7,8.6,32.2
	c4.8,14.2,10.4,28.2,16,42.1c4.1,10.3,8.3,20.5,13.1,30.5c5.8,11.9,12.1,23.6,18.6,35.1c2.2,3.9,0.7,7.3,0.6,11
	c-0.1,1.4-0.4,2.8-1,4C473.4,475.3,472.2,476.5,470.8,478.4z"/>
<path id="T1-R" fill="#FFFFFF" d="M155.8,315.2c0.7,1.8,1.6,3.5,2.1,5.4c1.5,5.5,4.5,10.1,8,14.4c1.7,2.1,1.6,4.2,1,6.4
	c-2.1,7.1-4.1,14.2-6.5,21.1c-1.2,3.3-3.2,6.2-5.1,9.2c-2.2,3.5-3.1,7.3-3.8,11.3c-1.1,5.6-2.6,11.2-4,16.7
	c-3.1,12.8-9.5,24-16.8,34.8c-5.2,7.6-9.8,15.6-14.9,23.3c-4,6.1-8.4,12-12.6,18c-0.6,0.9-1.5,1.6-2.3,2.3c-0.9-1-2.3-1.8-2.6-2.9
	c-1-4-2.2-8.1-2.2-12.1c0-2.2,2.1-4.5,3.2-6.7c4.8-9.2,9.7-18.4,14.3-27.6c3.8-7.6,7.3-15.2,10.7-23c4.1-9.4,7.9-19,11.8-28.5
	c2.1-5.2,4.4-10.3,6.2-15.6c2.2-6.5,4.2-13.2,6.1-19.8c1.9-6.6,3.6-13.3,5.3-20c0.6-2.1,1-4.2,1.6-6.4
	C155.3,315.4,155.5,315.3,155.8,315.2z"/>
<path id="T6" fill="#FFFFFF" d="M193.6,293.8c62.1,38.7,123.6,38.4,185-0.3c-0.1,7.7-4.2,12.3-9.6,16.2c-8,6-16.3,11.5-25.4,15.6
	c-6.9,3.2-13.7,6.7-20.8,9.2c-5.4,1.9-11.2,3.2-16.9,3.7c-9.7,0.8-19.5,1.2-29.2,1c-8.5-0.2-16.9-1.2-25-4
	c-15.6-5.4-30.3-12.6-43.9-22.1c-3.6-2.6-7.1-5.5-10.3-8.5C194.4,302,194.3,298,193.6,293.8z"/>
<path id="T3" fill="#FFFFFF" d="M384.7,275.1c-2.3-0.2-4.2-0.4-6.1-0.6c-9.2-1.4-18.4-3.4-27.7-4.1c-12.8-0.9-25.6-0.9-38.4-1.2
	c-6.1-0.2-12.2-0.6-18.4-0.5c-13.4,0.1-26.9,0.4-40.3,0.6c-9.7,0.1-19.4-0.3-28.9,0.6c-10.7,1-21.2,3.1-31.8,4.7c-1,0.2-2,0.4-3,0.4
	c-1-0.1-2.5-0.3-2.8-0.9c-0.7-1.5-0.1-2.9,1.6-3.5c2.5-0.8,5.1-1.6,7.6-2.4c7.5-2.5,14.9-5.3,22.5-7.4c5.7-1.6,11.6-2.5,17.4-3.7
	c12.2-2.6,24.5-2.4,36.9-2.5c5.6,0,11.1-0.9,16.7-0.7c13.3,0.5,26.7,0.9,39.9,2.3c12.9,1.4,25.4,4.8,37.5,9.4
	c4.4,1.7,9,3.3,13.6,4.5C383.4,270.6,384.1,272.2,384.7,275.1z"/>
<path id="C6-L_1_" fill="#FFFFFF" d="M498.2,552.8c-4.1,0.2-6.6-1.1-8.1-4.5c-2.4-5.7-4.8-11.4-6.8-17.3c-2.3-6.9-4.5-13.9-6.2-21
	c-2.2-9-3.9-18.1-5.7-27.2c-0.2-1,0.1-2.6,0.8-3c3.7-2.4,4.3-6.3,5.1-10.1c0.1-0.7,0.4-1.4,1.2-2.2c1.2,2.8,2.4,5.6,3.5,8.4
	c5.3,13.6,10.4,27.3,15.8,40.9c1.7,4.4,3.7,8.7,6,12.8c4,7.4,4.6,15.6,5.1,23.7c0.2,2.8-2.1,3.8-4.6,2.4c-2.7-1.4-4-3.8-5-6.4
	c-3-7.5-4.7-15.4-6-23.4c-0.1-0.7-0.9-1.3-1.4-2c-0.3,0.8-0.9,1.6-0.7,2.4c1.4,8,2.6,15.9,6,23.4
	C497.6,550.6,497.8,551.6,498.2,552.8z"/>
<path id="C6-R_1_" fill="#FFFFFF" d="M94,467.6c0.5,2.3,0.8,4.7,1.5,6.9c0.5,1.5,1.1,3.3,2.3,4.1c3.6,2.5,2.5,5.8,1.8,9
	c-0.9,4.3-2,8.5-3,12.8c-1.4,6.2-2.5,12.6-4.3,18.7c-2.7,8.8-5.8,17.5-9.1,26c-1.5,3.8-3.7,7.5-9.2,7.8c2.6-9.6,6.2-18.9,7.2-28.7
	c-0.4-0.1-0.7-0.3-1.1-0.4c-0.4,1-1,2-1.3,3c-2.2,7.7-4.2,15.6-6.7,23.2c-0.7,2.1-2.8,3.7-4.4,5.3c-0.7,0.6-2.2,1.1-2.9,0.7
	c-0.7-0.3-1.5-1.8-1.4-2.7c0.5-7.5,0.4-14.9,4-22c3.6-6.9,6.3-14.3,9.2-21.5c4.8-11.9,9.6-23.8,14.3-35.7c0.9-2.2,1.6-4.6,2.4-6.8
	C93.5,467.5,93.8,467.5,94,467.6z"/>
<path id="C7-L_1_" fill="#FFFFFF" d="M485,474.8c3.4,4.4,6.8,8.7,10.1,13.2c6.6,9.2,13.3,18.4,19.3,27.9c3,4.7,4.6,10.2,6.8,15.4
	c2.7,6.3,5.4,12.6,7.9,18.9c0.8,1.9,1.4,3.8,1.7,5.8c0.2,1.1-0.3,3.2-0.9,3.3c-1.2,0.3-2.9,0-4-0.7c-5.7-3.8-9-9.7-12.1-15.5
	c-5.5-10.4-10.8-20.8-15.5-31.6c-4.4-9.9-7.9-20.2-11.7-30.3c-0.8-2.1-1.6-4.1-2.3-6.2C484.5,475,484.7,474.9,485,474.8z"/>
<path id="C7-R_1_" fill="#FFFFFF" d="M88.5,473.7c-2.5,6.3-4.9,12.7-7.5,19c-4,9.8-8.2,19.5-12.1,29.4
	c-4.3,11.1-10.1,21.3-17.4,30.8c-1.7,2.2-3.7,4.2-5.8,6c-0.9,0.7-2.9,1-3.7,0.4c-0.8-0.6-1.2-2.6-0.8-3.7c2.2-5.8,4.7-11.5,7-17.3
	c1.5-3.7,3.3-7.3,4.5-11.1c1.8-5.9,4.7-11.2,8.3-16.3c6.3-8.9,12.6-17.7,18.8-26.6c2.1-2.9,4-6,6-9c0.5-0.8,1.3-1.4,1.9-2.1
	C88,473.4,88.2,473.6,88.5,473.7z"/>
<path id="C2" fill="#FFFFFF" d="M314.1,141.3c0.1,0.3,0.4,0.5,0.3,0.8c-0.6,4-0.5,8,0.1,12c0.1,0.8-0.8,2-1.5,2.8
	c-5.8,5.9-13.2,8.5-21.1,9.3c-8,0.9-16.1,0.4-23.4-3.2c-3.6-1.7-6.7-4.5-9.8-7c-0.6-0.5-1-1.8-1-2.7c-0.1-3.2,0-6.3,0.1-9.5
	c0-0.7,0.4-1.3,0.7-1.9c0.6,0.2,1.2,0.4,1.7,0.7c9.3,7.8,20.1,9.6,31.9,8.4c8-0.9,14.6-4.1,20.5-9.3c0.2-0.2,0.5-0.3,0.7-0.4
	C313.5,141.3,313.8,141.3,314.1,141.3z"/>
<path id="S1-R-OUTER" fill="#FFFFFF" d="M216,1028.7c-2,0.9-4,1.7-6,2.6c-0.2-0.2-0.4-0.3-0.6-0.5c0.8-0.9,1.4-2,2.3-2.6
	c7.2-5.3,14.4-10.5,21.5-15.9c2.1-1.6,3.9-3.6,5.9-5.4c0.3,0.2,0.5,0.4,0.8,0.6c-2,2.9-3.9,5.8-5.9,8.6c-5,6.9-10.9,12.8-17.8,17.7
	c-1.4,1-2.5,2.4-3.9,3.4c-0.6,0.4-1.5,0.3-2.3,0.4c0.1-0.9-0.1-2.1,0.3-2.6c2-1.8,4.2-3.4,6.3-5.1
	C216.4,1029.5,216.2,1029.1,216,1028.7z"/>
<path id="S1-L-OUTER" fill="#FFFFFF" d="M361.6,1031.3c-2.4-0.6-3.8-3.6-6.9-1.6c2,1.5,3.8,2.7,5.4,4.1c0.8,0.7,1.5,1.6,2,2.6
	c0.2,0.4-0.2,1.1-0.5,1.6c-0.1,0.1-1-0.1-1.3-0.4c-5.1-4.2-10.4-8.1-15-12.7c-4.5-4.6-8.1-10-12.1-15c0.3-0.3,0.6-0.5,0.9-0.8
	c9.1,6.7,18.2,13.4,27.2,20.2C361.6,1029.5,361.4,1030.5,361.6,1031.3z"/>
<path id="S1-R-INNER" fill="#FFFFFF" d="M281.8,1004.3c1.1,4.8,1.9,9.1-1.8,12.6c-2.9,2.8-5.9,5.5-10.9,6.1
	C271.6,1015.3,275.6,1009.4,281.8,1004.3z"/>
<path id="S1-L-INNER" fill="#FFFFFF" d="M303,1023.3c-7.7-1.8-15.8-8-12.7-18.2c1.3,1.1,2.5,1.8,3.4,2.8c4.2,4.1,7,9.1,9.3,14.4
	C303.3,1022.4,303.1,1022.8,303,1023.3z"/>
<path id="FACE-SIDE" fill="#FFFFFF" d="M426.7,131.9c-2.4-0.6-4.7-1.2-7.1-1.6c-3.1-0.6-4.1-1.6-3.4-4.7c0.8-3.4-0.7-5.3-3.3-7
	c-4.2-2.7-4.2-3.1-1.8-7.5c4.1-7.3,7.8-14.8,10-22.9c0.2-0.8,0.3-1.6,0.1-2.4c-1.5-5.8-3.3-11.5-4.5-17.4c-0.4-1.9,0.7-4.1,1.4-6.1
	c1.4-4.2,3-8.3,4.2-12.5c0.4-1.2,0.5-2.8,0-3.9c-1.9-4.3-1.1-7.7,2.9-10.4c6.7-4.4,13.9-7.3,21.4-10.2c12.3-4.7,24.7-5.3,37.4-2.6
	c3.7,0.8,7.4,1.8,11.1,2.7c1.9,0.4,2.2,1.8,2,3.4c-0.6,4.2-1.1,8.5-1.8,12.7c-0.9,5.2-1.5,10.5-2.8,15.6c-1.5,5.9-3.7,11.6-5.4,17.4
	c-2.1,7.1-3.9,14.2-6,21.3c-1.8,6.3-3.7,12.6-5.8,18.7c-3.1,9.1-6.6,18-9.6,27.1c-1.9,5.7-5.9,8.5-11.2,10.1
	c-5.5,1.6-10.8,3.7-16.4,5c-3.5,0.8-7.6,1.2-11,0.2c-6.2-1.7-8.4-6.6-6.9-13c0.3-1.4,0.9-2.8,1.3-4.2c0.5-1.6,0.2-2.7-1.6-3.6
	c-0.8-0.4-1.1-1.7-1.7-2.7c0.9-0.5,1.8-1.3,2.8-1.4c1.9,0,3.9,0.3,5.9,0.6C426.7,132.6,426.7,132.3,426.7,131.9z"/>
<path id="C2-SIDE" fill="#FFFFFF" d="M456.9,164c-0.4,0-0.7,0-1.1,0c-5.9,0-7.3-1.5-5.8-7.2c0.4-1.5,2.6-3.3,4.3-3.7
	c6.1-1.3,11.1-4.8,16.6-7.3c4.1-1.9,7.1-4.6,8.9-8.6c1.1-2.3,2.3-4.8,2.3-7.3c0.1-3.8,1.3-6.5,4.4-8.6c4.2-2.9,5.8-7.7,6.7-12.3
	c1-4.7,1.2-9.7,1.2-14.6c0-2.3-0.6-4.8-1.6-6.9c-0.5-1.1-2.2-1.8-3.5-2.4c-3.3-1.6-3.6-2.9-2.4-6.3c2.3-6.6,4.6-13.2,6.4-19.9
	c1.5-5.4,2.6-11,3.5-16.5c0.6-3.8,0.6-7.7,1-11.6c0.1-1.1,0.5-2.6,1.3-3.1c0.7-0.4,2.2,0.2,3.2,0.6c5.1,2.2,9.6,5.4,13.3,9.4
	c3.5,3.8,6.9,7.7,9.5,12.1c2.6,4.4,4.4,9.3,6.1,14.2c1.2,3.4,1.9,7,2.4,10.5c1.2,9.4,1.6,18.9-1.1,28.2c-1.7,5.9-4.6,11.2-9.8,15
	c-4.1,3-9,5.3-11.2,10.4c-0.2,0.5-0.7,1-0.7,1.5c-0.2,6-4.8,8.5-8.9,11.4c-7.9,5.5-15.8,11.2-23.8,16.6
	C471.7,162,464.6,164.1,456.9,164z"/>
<path id="C4-SIDE" fill="#FFFFFF" d="M524.4,206.9c1,3.9,2,7.8,3.2,11.6c1,3.1-0.1,4.8-3.4,4.8c-19.7,0-39.4,0-59.1,0
	c-3.2,0-3.8-0.6-3-3.8c0.5-2.3,1.3-4.6,1.6-7c-2.3,3.1-3.1,6.9-4.2,10.8c-6.3,0-12.7,0-19.1-0.1c-0.5,0-1.6-1.3-1.5-1.9
	c0.4-3.7,0.8-7.5,3.3-10.4c1.5-1.7,3.8-2.9,5.9-3.9c4.4-2.2,9-4,13.3-6.3c5.9-3,11.7-6.2,17.5-9.5c6.4-3.8,12.9-7.5,18.9-11.8
	c5.6-4,10.7-8.6,15.9-13.1c1.5-1.3,2.2-1.3,3.6,0.1c3.4,3.4,7.4,6.4,10.6,10c3.4,3.9,6.5,8.3,9.3,12.7c1.7,2.8,2.4,6.2,4,9.1
	c1.8,3.2,0.8,6-1.3,8c-3.2,3.1-7.1,5.7-10.8,8.6c-1.4-3.2-2.5-5.7-3.6-8.2C525,206.7,524.7,206.8,524.4,206.9z"/>
<path id="C3-SIDE" fill="#FFFFFF" d="M444.3,205.9c1.9-3.7,4.1-7.3,5.8-11.2c1.9-4.4,3.9-8.8,4.9-13.4c1-4.6-0.3-9.1-2.8-13.2
	c-0.4-0.7-0.6-1.5-0.9-2.2c0.8-0.2,1.7-0.7,2.5-0.7c5.9,0.2,11.7-0.4,17.2-2.2c3.5-1.1,6.8-3.1,10-5.1c5.3-3.3,10.5-6.8,15.6-10.4
	c3.2-2.2,6.1-4.8,9.2-7.1c2.2-1.7,3.3-1.3,3.6,1.5c0.3,2.3,0.4,4.6,0.4,6.9c0.1,4.3,1.1,8.3,3.2,12c1.1,1.9,0.6,3.2-1.3,4.7
	c-5.3,4-10.1,8.6-15.4,12.5c-5.3,3.9-11,7.4-16.6,10.8c-5.5,3.3-11,6.5-16.7,9.6c-3.6,2-7.4,3.6-11.1,5.4c-1.6,0.8-3.2,1.5-4.8,2.2
	c-0.8,0.3-1.7,0.5-2.6,0.8C444.5,206.4,444.4,206.1,444.3,205.9z"/>
<path id="EAR" fill="#FFFFFF" d="M482,120.2c-0.3,2.2-0.4,4.5-1,6.7c-1,3.9-2.1,7.8-3.5,11.6c-1.4,3.5-8.7,7.7-11.9,7.2
	c2.7-7.3,5.6-14.6,8.1-22c1.9-5.6,3.5-11.3,5.2-17c1.3-4.2,2.5-8.5,3.8-12.7c0.5-1.8,1.1-3.6,1.7-5.4c0.9-3,3.5-3.8,5.6-1.4
	c1.8,2.1,3.4,4.4,3.2,7.5c-0.3,3.8,0.4,7.8-0.7,11.3c-1.4,4.4-1.9,9.4-5.8,12.9C484.4,120.9,484.7,121.1,482,120.2z"/>
<path id="NONE" fill="#FFFFFF" d="M543.6,205.6c0.8,4.1,1.7,7.7,2.1,11.4c0.6,6.2,2.2,6.4-5.6,6.3c-2.8,0-5.6,0.2-8.3-0.1
	c-0.9-0.1-2.4-1.4-2.5-2.2c-0.2-1.8-0.3-4.3,0.8-5.3c3.6-3.4,7.8-6.2,11.8-9.3C542.1,206.3,542.5,206.1,543.6,205.6z"/>
<path id="C8-R" fill="#FFFFFF" d="M44.6,677.9c-7.2,5.2-13.4,11.4-18.9,18.5c-1.8-1.2-2.5-4.2-1.2-6.3c2.3-3.8,4.6-7.8,7.4-11.2
	c4.5-5.5,9.2-11,14.3-15.9c7.6-7.3,15.7-14.1,23.6-21.2c1.4-1.3,2.4-1.7,4.5-0.9c3.7,1.3,7.5,0.2,11-1.4c0.5-0.2,1-0.3,2.3-0.7
	c-2,2.5-3.5,4.4-5,6.3C72,658.6,61,671.9,50.8,685.8c-5.2,7.1-10.8,13.5-18.4,18.1c-0.2,0.1-0.3,0.3-0.4,0.3
	c-1.7,0.4-3.4,0.8-5.1,1.2c-0.1-1.9-0.8-4-0.1-5.5c2.4-5.7,6.7-10,11.3-14c2.2-1.9,4.4-3.9,6.6-5.8c0.4-0.4,0.5-1,0.8-1.5
	C45.1,678.3,44.9,678.1,44.6,677.9z"/>
<path id="C7-R" fill="#FFFFFF" d="M84.4,647c-1.3,3.1-2.5,6.3-3.9,9.4c-5,10.8-9.8,21.7-15.1,32.4c-2.1,4.2-4.9,8.1-7.7,11.9
	c-5.5,7.3-11.1,14.4-16.8,21.6c-0.7,0.9-1.5,2-2.5,2.5c-1,0.5-3,1.1-3.3,0.7c-0.9-1.2-1.9-3.1-1.5-4.3c1.7-4.9,3.7-9.7,6.1-14.3
	c9.4-18,22.7-33.3,35.2-49c3-3.8,6-7.5,9.1-11.3C84,646.8,84.2,646.9,84.4,647z"/>
<path id="C8-L" fill="#FFFFFF" d="M482.1,637.4c4.9,1.5,9.1,2.9,13.7,0.6c0.5-0.2,1.6,0.3,2.1,0.8c6.3,5.7,12.7,11.3,18.8,17.2
	c4.8,4.6,9.6,9.2,14.1,14.2c4.8,5.3,9.7,10.7,12.7,17.3c0.5,1,1,2.1,0.9,3.1c-0.1,1.1-1,2-1.5,3c-0.7-0.5-1.4-1-2-1.6
	c-4.7-4.7-9.3-9.5-14-14.2c-1-1-2.5-1.7-3.7-2.5c-0.2,0.2-0.5,0.5-0.7,0.7c0.6,0.9,1.2,1.8,1.9,2.6c4.8,4.7,9.9,9.2,14.4,14.1
	c1.8,1.9,2.7,4.6,3.6,7.1c0.3,0.8-0.3,2.5-1,3.1c-0.7,0.6-2.3,0.6-3.2,0.2c-8.4-4.4-14.6-10.9-20.1-18.6c-7.8-11-16.4-21.4-24.7-32
	c-3.5-4.4-7-8.8-10.5-13.3C482.5,638.6,482.4,638,482.1,637.4z"/>
<path id="C7-L" fill="#FFFFFF" d="M485.3,645.5c0.7,0.8,1.5,1.6,2.2,2.5c6.8,8.5,13.7,16.9,20.4,25.5c10,12.8,19.5,25.9,25.6,41.1
	c0.8,2,1.2,4.3,1.3,6.5c0,1-0.8,2.4-1.7,2.8c-0.6,0.3-2.2-0.4-2.7-1.2c-6.8-8.2-13.4-16.5-20.1-24.8c-7.3-9.1-11.3-19.9-16-30.3
	c-3.1-6.9-6-13.9-9-20.9c-0.1-0.3-0.2-0.7-0.2-1C485,645.7,485.2,645.6,485.3,645.5z"/>
</svg>
